<svg width="449" height="200" viewBox="0 0 449 200" fill="none" xmlns="http://www.w3.org/2000/svg">
<g clip-path="url(#clip0_327_678)">
<mask id="mask0_327_678" style="mask-type:luminance" maskUnits="userSpaceOnUse" x="-112" y="-117" width="675" height="434">
<path d="M-112 -117H562.356V316.029H-112V-117Z" fill="white"/>
</mask>
<g mask="url(#mask0_327_678)">
<path d="M220.257 149.337C217.069 149.337 214.523 148.256 212.62 146.092C210.715 143.928 209.764 140.866 209.764 136.91C209.764 132.954 210.715 129.894 212.62 127.73C214.523 125.566 217.069 124.484 220.257 124.484C225.047 124.484 228.208 126.845 229.744 131.565H226.144C225.035 129.036 223.072 127.766 220.257 127.756C218.135 127.756 216.428 128.545 215.139 130.125C213.848 131.704 213.203 133.965 213.203 136.91C213.203 139.856 213.843 142.117 215.121 143.697C216.401 145.276 218.113 146.065 220.257 146.065C222.241 146.065 223.805 145.433 224.952 144.169C226.099 142.905 226.715 141.406 226.801 139.676H220.081V136.388H230.239V137.956C230.239 141.429 229.352 144.194 227.576 146.25C225.8 148.308 223.36 149.337 220.257 149.337Z" fill="#7D6F45"/>
<path d="M257.17 149V124.821H260.61V145.712H271.902V149H257.17Z" fill="#7D6F45"/>
<path d="M314.335 146.091C312.437 148.255 309.894 149.336 306.705 149.336C303.515 149.336 300.97 148.248 299.067 146.074C297.163 143.899 296.211 140.846 296.211 136.91C296.211 132.976 297.169 129.922 299.082 127.747C300.997 125.571 303.538 124.484 306.705 124.484C309.894 124.484 312.437 125.571 314.335 127.747C316.234 129.922 317.183 132.976 317.183 136.91C317.183 140.867 316.234 143.927 314.335 146.091ZM301.586 143.696C302.875 145.275 304.579 146.066 306.698 146.066C308.814 146.066 310.518 145.275 311.809 143.696C313.099 142.118 313.745 139.855 313.745 136.91C313.745 133.966 313.099 131.703 311.809 130.124C310.518 128.546 308.814 127.756 306.698 127.756C304.579 127.756 302.875 128.546 301.586 130.124C300.295 131.703 299.65 133.966 299.65 136.91C299.65 139.855 300.295 142.118 301.586 143.696Z" fill="#7D6F45"/>
<path d="M344.116 149V124.821H354.177C356.344 124.821 358.02 125.421 359.208 126.617C360.398 127.813 360.993 129.464 360.993 131.565C360.993 132.736 360.724 133.78 360.185 134.702C359.646 135.624 358.929 136.304 358.033 136.742C358.992 137.204 359.78 137.922 360.393 138.9C361.005 139.878 361.313 141.002 361.313 142.273C361.313 144.362 360.717 146.008 359.529 147.205C358.338 148.401 356.662 149 354.497 149H344.116ZM347.556 135.36H353.938C355.002 135.36 355.873 135.03 356.545 134.373C357.217 133.716 357.553 132.837 357.553 131.734C357.553 130.633 357.22 129.753 356.553 129.096C355.886 128.438 355.014 128.11 353.938 128.11H347.556V135.36ZM347.556 145.712H354.273C355.34 145.712 356.206 145.385 356.873 144.733C357.54 144.082 357.873 143.202 357.873 142.096C357.873 140.989 357.54 140.105 356.873 139.449C356.206 138.79 355.34 138.462 354.273 138.462H347.556V145.712Z" fill="#7D6F45"/>
<path d="M385.619 149L394.129 124.821H398.225L406.751 149H403.135L401.249 143.468H391.122L389.218 149H385.619ZM392.226 140.198H400.129L396.257 128.969H396.097L392.226 140.198Z" fill="#7D6F45"/>
<path d="M432.035 149V124.821H435.475V145.712H446.767V149H432.035Z" fill="#7D6F45"/>
<path d="M383.401 106.727V50.4804H369.484L356.403 83.2337L343.263 50.4804H329.424V106.727H338.685V62.8084L350.849 93.2804H361.896L374.14 62.7817V106.727H383.401ZM284.851 83.1817L292.531 60.9444L300.265 83.2151L284.851 83.1817ZM298.729 50.4804H286.245L266.964 106.727H276.773L281.837 91.9724H303.309L308.463 106.727H318.272L298.808 50.7231L298.729 50.4804ZM445.168 70.1791V63.6857C445.168 54.6791 440.969 50.4804 431.963 50.4804H412.583C403.577 50.4804 399.385 54.6791 399.385 63.6857C399.385 73.8817 402.577 76.6751 412.179 79.8724L431.557 86.3604C435.292 87.6031 435.9 88.6044 435.9 93.4964C435.9 97.0604 435.168 97.8777 431.976 97.8777H412.583C409.385 97.8777 408.66 97.0604 408.66 93.4964V86.9937H399.385V93.4964C399.385 102.503 403.577 106.694 412.583 106.694H431.963C440.969 106.694 445.168 102.503 445.168 93.4964C445.168 83.2937 441.969 80.5004 432.368 77.3017L412.989 70.8191C409.261 69.5724 408.647 68.5711 408.647 63.6857C408.647 60.1204 409.385 59.2964 412.571 59.2964H431.949C435.155 59.2964 435.873 60.1204 435.873 63.6857V70.1791H445.168ZM247.257 74.1031C247.257 77.6684 246.524 78.4857 243.332 78.4857H220.004V59.2964H243.32C246.524 59.2964 247.244 60.1204 247.244 63.6857L247.257 74.1031ZM243.32 50.4804H210.743V106.727H220.004V87.3217H233.325L245.445 106.727H256.447L244.216 87.3017C252.607 87.0351 256.525 82.8217 256.525 74.1164V63.6857C256.525 54.6791 252.325 50.4804 243.32 50.4804Z" fill="#183F34"/>
<path d="M153.285 61.2749H175.243V50.2962H153.285V61.2749Z" fill="#183F34"/>
<path d="M133.295 83.2441H177.219V72.2641H133.295V83.2441Z" fill="#183F34"/>
<path d="M67.4014 149.138H177.219V138.158H67.4014V149.138Z" fill="#183F34"/>
<path d="M89.3694 127.168H177.219V116.189H89.3694V127.168Z" fill="#183F34"/>
<path d="M111.325 105.212H177.217V94.2226H111.325V105.212Z" fill="#183F34"/>
</g>
<mask id="mask1_327_678" style="mask-type:luminance" maskUnits="userSpaceOnUse" x="11" y="138" width="36" height="12">
<path d="M11.7654 138.157C12.1494 139.007 12.5507 139.856 12.9601 140.692C12.9614 140.695 12.9614 140.699 12.9627 140.703C14.3827 143.601 15.9467 146.415 17.6454 149.137H46.8974V138.157H11.7654Z" fill="white"/>
</mask>
<g mask="url(#mask1_327_678)">
<mask id="mask2_327_678" style="mask-type:luminance" maskUnits="userSpaceOnUse" x="-43803" y="-43374" width="87381" height="87381">
<path d="M-43802.7 -43373.3H43577.3V44006.7H-43802.7V-43373.3Z" fill="url(#paint0_linear_327_678)"/>
</mask>
<g mask="url(#mask2_327_678)">
<path d="M11.7656 138.157C12.1496 139.006 12.551 139.855 12.9603 140.691C12.9616 140.694 12.9616 140.698 12.963 140.702C14.383 143.601 15.947 146.414 17.6456 149.137H46.8976V138.157H11.7656Z" fill="url(#paint1_linear_327_678)"/>
</g>
</g>
<mask id="mask3_327_678" style="mask-type:luminance" maskUnits="userSpaceOnUse" x="4" y="116" width="65" height="12">
<path d="M4.94128 116.189C4.95062 116.247 4.96261 116.308 4.97194 116.367C4.98128 116.415 4.99062 116.463 4.99995 116.512C5.00395 116.533 5.00662 116.557 5.01195 116.577C5.67329 120.184 6.54262 123.72 7.60395 127.168H68.7613V116.189H4.94128Z" fill="white"/>
</mask>
<g mask="url(#mask3_327_678)">
<mask id="mask4_327_678" style="mask-type:luminance" maskUnits="userSpaceOnUse" x="-43803" y="-43374" width="87381" height="87381">
<path d="M-43802.7 -43373.3H43577.3V44006.7H-43802.7V-43373.3Z" fill="url(#paint2_linear_327_678)"/>
</mask>
<g mask="url(#mask4_327_678)">
<path d="M4.94141 116.189C4.95074 116.247 4.96273 116.308 4.97207 116.367C4.9814 116.415 4.99074 116.463 5.00007 116.512C5.00407 116.533 5.00674 116.557 5.01207 116.577C5.67341 120.184 6.54274 123.72 7.60407 127.168H68.7614V116.189H4.94141Z" fill="url(#paint3_linear_327_678)"/>
</g>
</g>
<mask id="mask5_327_678" style="mask-type:luminance" maskUnits="userSpaceOnUse" x="11" y="50" width="122" height="12">
<path d="M17.4094 50.2972C16.3454 52.0212 15.3361 53.7786 14.3814 55.5732C14.3801 55.5759 14.3787 55.5786 14.3787 55.5786C14.2921 55.7439 14.2041 55.9066 14.1187 56.0706C14.1147 56.0786 14.1134 56.0812 14.1107 56.0879C14.0707 56.1639 14.0307 56.2412 13.9921 56.3172C13.9881 56.3226 13.9841 56.3306 13.9814 56.3346C13.9414 56.4146 13.8987 56.4919 13.8601 56.5719C13.8534 56.5825 13.8494 56.5932 13.8414 56.6025C13.8081 56.6719 13.7721 56.7399 13.7374 56.8065C13.7307 56.8212 13.7227 56.8359 13.7161 56.8479C13.6787 56.9225 13.6387 56.9999 13.6014 57.0732C13.5934 57.0906 13.5854 57.1079 13.5761 57.1226C13.5481 57.1826 13.5174 57.2412 13.4881 57.2985C13.4761 57.3225 13.4641 57.3466 13.4507 57.3719C13.4161 57.4412 13.3814 57.5119 13.3454 57.5799C13.3347 57.6025 13.3227 57.6252 13.3121 57.6479C13.2867 57.6986 13.2627 57.7465 13.2374 57.7985C13.2214 57.8292 13.2054 57.8612 13.1907 57.8932C13.1667 57.9399 13.1441 57.9825 13.1227 58.0292C13.0961 58.0825 13.0707 58.1332 13.0454 58.1879C13.0267 58.2252 13.0067 58.2652 12.9881 58.3026C12.9694 58.3426 12.9494 58.3826 12.9294 58.4212C12.9147 58.4532 12.8987 58.4866 12.8827 58.5186C12.8494 58.5879 12.8174 58.6572 12.7827 58.7252C12.7681 58.7546 12.7534 58.7852 12.7387 58.8146C12.7174 58.8586 12.6974 58.9012 12.6761 58.9466C12.6627 58.9719 12.6507 58.9959 12.6387 59.0239C12.5921 59.1199 12.5454 59.2172 12.5001 59.3132C12.4974 59.3185 12.4947 59.3239 12.4934 59.3279C12.4694 59.3785 12.4454 59.4292 12.4227 59.4786C12.4121 59.4986 12.4054 59.5132 12.3961 59.5332C12.3201 59.6932 12.2441 59.8559 12.1694 60.0172C12.1654 60.0252 12.1587 60.0385 12.1574 60.0465C11.9667 60.4545 11.7801 60.8652 11.5947 61.2759H132.812V50.2972H17.4094Z" fill="white"/>
</mask>
<g mask="url(#mask5_327_678)">
<mask id="mask6_327_678" style="mask-type:luminance" maskUnits="userSpaceOnUse" x="-43803" y="-43374" width="87381" height="87381">
<path d="M-43802.7 -43373.3H43577.3V44006.7H-43802.7V-43373.3Z" fill="url(#paint4_linear_327_678)"/>
</mask>
<g mask="url(#mask6_327_678)">
<path d="M17.4084 50.2987C16.3444 52.0227 15.3351 53.78 14.3804 55.5747C14.3791 55.5774 14.3777 55.58 14.3777 55.58C14.2911 55.7454 14.2031 55.908 14.1177 56.072C14.1137 56.08 14.1124 56.0827 14.1098 56.0894C14.0698 56.1654 14.0298 56.2427 13.9911 56.3187C13.9871 56.324 13.9831 56.332 13.9804 56.336C13.9404 56.416 13.8977 56.4933 13.8591 56.5733C13.8524 56.584 13.8484 56.5947 13.8404 56.604C13.8071 56.6733 13.7711 56.7413 13.7364 56.808C13.7298 56.8227 13.7218 56.8373 13.7151 56.8493C13.6778 56.924 13.6377 57.0014 13.6004 57.0747C13.5924 57.092 13.5844 57.1094 13.5751 57.124C13.5471 57.184 13.5164 57.2427 13.4871 57.3C13.4751 57.324 13.4631 57.348 13.4497 57.3734C13.4151 57.4427 13.3804 57.5133 13.3444 57.5813C13.3338 57.604 13.3218 57.6267 13.3111 57.6494C13.2858 57.7 13.2618 57.748 13.2364 57.8C13.2204 57.8307 13.2044 57.8627 13.1897 57.8947C13.1657 57.9413 13.1431 57.984 13.1218 58.0307C13.0951 58.084 13.0697 58.1347 13.0444 58.1894C13.0257 58.2267 13.0057 58.2667 12.9871 58.304C12.9684 58.344 12.9484 58.384 12.9284 58.4227C12.9137 58.4547 12.8978 58.488 12.8818 58.52C12.8484 58.5894 12.8164 58.6587 12.7817 58.7267C12.7671 58.756 12.7524 58.7867 12.7378 58.816C12.7164 58.86 12.6964 58.9027 12.6751 58.948C12.6618 58.9734 12.6497 58.9974 12.6377 59.0254C12.5911 59.1214 12.5444 59.2187 12.4991 59.3147C12.4964 59.32 12.4938 59.3253 12.4924 59.3293C12.4684 59.38 12.4444 59.4307 12.4218 59.48C12.4111 59.5 12.4044 59.5147 12.3951 59.5347C12.3191 59.6947 12.2431 59.8573 12.1684 60.0187C12.1644 60.0267 12.1577 60.04 12.1564 60.048C11.9657 60.456 11.7791 60.8667 11.5938 61.2773H132.811V50.2987H17.4084Z" fill="url(#paint5_linear_327_678)"/>
</g>
</g>
<mask id="mask7_327_678" style="mask-type:luminance" maskUnits="userSpaceOnUse" x="4" y="72" width="109" height="12">
<path d="M7.4893 72.2653C6.4053 75.8373 5.52797 79.504 4.87463 83.2427H112.685V72.2653H7.4893Z" fill="white"/>
</mask>
<g mask="url(#mask7_327_678)">
<mask id="mask8_327_678" style="mask-type:luminance" maskUnits="userSpaceOnUse" x="-43803" y="-43374" width="87381" height="87381">
<path d="M-43802.7 -43373.3H43577.3V44006.7H-43802.7V-43373.3Z" fill="url(#paint6_linear_327_678)"/>
</mask>
<g mask="url(#mask8_327_678)">
<path d="M7.48966 72.2649C6.40566 75.8369 5.52833 79.5035 4.875 83.2422H112.686V72.2649H7.48966Z" fill="url(#paint7_linear_327_678)"/>
</g>
</g>
<mask id="mask9_327_678" style="mask-type:luminance" maskUnits="userSpaceOnUse" x="3" y="94" width="88" height="12">
<path d="M3.61334 94.2214C3.60668 94.3387 3.60134 94.4534 3.59334 94.5707C3.59201 94.6054 3.59068 94.6387 3.58801 94.6734V104.38C3.59735 104.556 3.60667 104.733 3.61601 104.908C3.62267 105.009 3.62801 105.112 3.63601 105.213H90.724V94.2214H3.61334Z" fill="white"/>
</mask>
<g mask="url(#mask9_327_678)">
<mask id="mask10_327_678" style="mask-type:luminance" maskUnits="userSpaceOnUse" x="-43803" y="-43374" width="87381" height="87381">
<path d="M-43802.7 -43373.3H43577.3V44006.7H-43802.7V-43373.3Z" fill="url(#paint8_linear_327_678)"/>
</mask>
<g mask="url(#mask10_327_678)">
<path d="M3.61517 94.2228C3.60851 94.3402 3.60317 94.4549 3.59517 94.5722C3.59384 94.6069 3.59251 94.6402 3.58984 94.6748V104.382C3.59918 104.558 3.60851 104.735 3.61784 104.91C3.62451 105.011 3.62984 105.114 3.63784 105.215H90.7258V94.2228H3.61517Z" fill="url(#paint9_linear_327_678)"/>
</g>
</g>
<mask id="mask11_327_678" style="mask-type:luminance" maskUnits="userSpaceOnUse" x="25" y="160" width="144" height="12">
<path d="M25.6641 160.117C26.2481 160.807 26.8427 161.488 27.4467 162.16C27.4521 162.166 27.4574 162.172 27.4641 162.178C27.5174 162.237 27.5654 162.292 27.6174 162.352C27.6374 162.372 27.6561 162.393 27.6747 162.412C27.7161 162.459 27.7547 162.501 27.7947 162.546C27.8187 162.572 27.8401 162.595 27.8614 162.619C27.8974 162.659 27.9321 162.698 27.9681 162.734C27.9934 162.764 28.0214 162.793 28.0467 162.821C28.0761 162.855 28.1054 162.886 28.1347 162.918C28.1667 162.953 28.2014 162.989 28.2334 163.023C28.2454 163.039 28.2561 163.05 28.2707 163.065C28.4241 163.233 28.5774 163.397 28.7307 163.563L28.7334 163.564C31.2201 166.225 33.8641 168.74 36.6441 171.097H157.843C161.797 167.745 165.469 164.072 168.82 160.117H25.6641Z" fill="white"/>
</mask>
<g mask="url(#mask11_327_678)">
<mask id="mask12_327_678" style="mask-type:luminance" maskUnits="userSpaceOnUse" x="-43803" y="-43374" width="87381" height="87381">
<path d="M-43802.7 -43373.3H43577.3V44006.7H-43802.7V-43373.3Z" fill="url(#paint10_linear_327_678)"/>
</mask>
<g mask="url(#mask12_327_678)">
<path d="M25.6641 160.118C26.2481 160.807 26.8427 161.488 27.4467 162.16C27.4521 162.167 27.4574 162.172 27.4641 162.179C27.5174 162.238 27.5654 162.292 27.6174 162.352C27.6374 162.372 27.6561 162.394 27.6747 162.412C27.7161 162.459 27.7547 162.502 27.7947 162.547C27.8187 162.572 27.8401 162.595 27.8614 162.619C27.8974 162.659 27.9321 162.699 27.9681 162.735C27.9934 162.764 28.0214 162.794 28.0467 162.822C28.0761 162.855 28.1054 162.887 28.1347 162.919C28.1667 162.954 28.2014 162.99 28.2334 163.023C28.2454 163.039 28.2561 163.051 28.2707 163.066C28.4241 163.234 28.5774 163.398 28.7307 163.563L28.7334 163.564C31.2201 166.226 33.8641 168.74 36.6441 171.098H157.843C161.797 167.746 165.469 164.072 168.82 160.118H25.6641Z" fill="url(#paint11_linear_327_678)"/>
</g>
</g>
<mask id="mask13_327_678" style="mask-type:luminance" maskUnits="userSpaceOnUse" x="25" y="28" width="144" height="12">
<path d="M36.432 28.1347C35.604 28.8401 34.7906 29.5588 33.988 30.2921C33.984 30.2974 33.976 30.3027 33.9733 30.3067C33.912 30.3627 33.8546 30.4148 33.7946 30.4694C33.7826 30.4801 33.7706 30.4921 33.7586 30.5014C33.7053 30.5508 33.652 30.6014 33.5986 30.6521C33.584 30.6641 33.5693 30.6761 33.556 30.6908C33.5053 30.7374 33.4533 30.7854 33.4 30.8334C33.3653 30.8681 33.3293 30.9014 33.2933 30.9348C33.2533 30.9721 33.2173 31.0054 33.176 31.0441C33.132 31.0854 33.0866 31.1268 33.0426 31.1681C33.0253 31.1854 33.012 31.1974 32.9933 31.2148C32.9466 31.2588 32.8986 31.3041 32.8493 31.3494C32.84 31.3588 32.8253 31.3748 32.8133 31.3841C32.7626 31.4321 32.7093 31.4828 32.6573 31.5321C32.6533 31.5374 32.648 31.5401 32.6453 31.5441C30.136 33.9308 27.7573 36.4547 25.5226 39.1027C25.5186 39.1081 25.516 39.1121 25.5133 39.1147H168.972C167.573 37.4561 166.12 35.8468 164.612 34.2894C164.601 34.2801 164.592 34.2681 164.581 34.2587C164.54 34.2147 164.499 34.1734 164.459 34.1321C164.436 34.1094 164.417 34.0894 164.393 34.0654C164.359 34.0294 164.321 33.9921 164.285 33.9561C164.259 33.9281 164.232 33.9001 164.205 33.8721C164.173 33.8414 164.143 33.8094 164.112 33.7774C164.077 33.7414 164.041 33.7067 164.007 33.6694C163.981 33.6454 163.956 33.6187 163.931 33.5947C163.876 33.5401 163.824 33.4854 163.769 33.4321C163.764 33.4241 163.755 33.4188 163.751 33.4121C163.683 33.3454 163.621 33.2828 163.556 33.2174C163.551 33.2121 163.548 33.2094 163.544 33.2054C163.484 33.1468 163.421 33.0828 163.36 33.0241C163.353 33.0161 163.345 33.0081 163.339 33.0001C163.281 32.9441 163.223 32.8854 163.165 32.8294C163.157 32.8214 163.148 32.8121 163.14 32.8041C163.079 32.7441 163.021 32.6868 162.961 32.6281C162.957 32.6241 162.953 32.6201 162.949 32.6147C161.371 31.0667 159.737 29.5721 158.053 28.1347H36.432Z" fill="white"/>
</mask>
<g mask="url(#mask13_327_678)">
<mask id="mask14_327_678" style="mask-type:luminance" maskUnits="userSpaceOnUse" x="-43803" y="-43374" width="87381" height="87381">
<path d="M-43802.7 -43373.3H43577.3V44006.7H-43802.7V-43373.3Z" fill="url(#paint12_linear_327_678)"/>
</mask>
<g mask="url(#mask14_327_678)">
<path d="M36.4304 28.1333C35.6024 28.8386 34.789 29.5573 33.9864 30.2906C33.9824 30.296 33.9744 30.3013 33.9717 30.3053C33.9104 30.3613 33.853 30.4133 33.793 30.468C33.781 30.4786 33.769 30.4906 33.757 30.5C33.7037 30.5493 33.6504 30.5999 33.597 30.6506C33.5824 30.6626 33.5677 30.6746 33.5544 30.6893C33.5037 30.736 33.4517 30.784 33.3984 30.832C33.3637 30.8666 33.3277 30.9 33.2917 30.9333C33.2517 30.9706 33.2157 31.004 33.1744 31.0426C33.1304 31.084 33.085 31.1253 33.041 31.1666C33.0237 31.184 33.0104 31.196 32.9917 31.2133C32.9451 31.2573 32.8971 31.3026 32.8477 31.348C32.8384 31.3573 32.8237 31.3733 32.8117 31.3826C32.761 31.4306 32.7077 31.4813 32.6557 31.5306C32.6517 31.536 32.6464 31.5386 32.6437 31.5426C30.1344 33.9293 27.7557 36.4533 25.521 39.1013C25.517 39.1066 25.5144 39.1106 25.5117 39.1133H168.97C167.572 37.4546 166.118 35.8453 164.61 34.288C164.6 34.2786 164.59 34.2666 164.58 34.2573C164.538 34.2133 164.497 34.1719 164.457 34.1306C164.434 34.1079 164.416 34.0879 164.392 34.0639C164.357 34.0279 164.32 33.9906 164.284 33.9546C164.257 33.9266 164.23 33.8986 164.204 33.8706C164.172 33.84 164.141 33.808 164.11 33.776C164.076 33.74 164.04 33.7053 164.005 33.6679C163.98 33.6439 163.954 33.6173 163.929 33.5933C163.874 33.5386 163.822 33.484 163.768 33.4306C163.762 33.4226 163.753 33.4173 163.749 33.4106C163.681 33.344 163.62 33.2813 163.554 33.216C163.549 33.2106 163.546 33.208 163.542 33.204C163.482 33.1453 163.42 33.0813 163.358 33.0226C163.352 33.0146 163.344 33.0066 163.337 32.9986C163.28 32.9426 163.221 32.884 163.164 32.828C163.156 32.82 163.146 32.8106 163.138 32.8026C163.077 32.7426 163.02 32.6853 162.96 32.6266C162.956 32.6226 162.952 32.6186 162.948 32.6133C161.369 31.0653 159.736 29.5706 158.052 28.1333H36.4304Z" fill="url(#paint13_linear_327_678)"/>
</g>
</g>
<mask id="mask15_327_678" style="mask-type:luminance" maskUnits="userSpaceOnUse" x="52" y="5" width="90" height="12">
<path d="M90.656 5.97581C77.0133 6.92248 64.1666 10.7905 52.752 16.9531H141.733C141.731 16.9518 141.724 16.9478 141.721 16.9465C141.697 16.9331 141.669 16.9185 141.647 16.9051C141.593 16.8758 141.544 16.8518 141.492 16.8238C141.453 16.8025 141.416 16.7811 141.379 16.7625C141.34 16.7425 141.304 16.7225 141.265 16.7025C141.215 16.6745 141.163 16.6478 141.111 16.6211C141.083 16.6038 141.057 16.5905 141.028 16.5758C140.959 16.5398 140.887 16.5011 140.816 16.4638C140.807 16.4585 140.795 16.4531 140.785 16.4478C129.607 10.5785 117.097 6.89581 103.831 5.97581H90.656Z" fill="white"/>
</mask>
<g mask="url(#mask15_327_678)">
<mask id="mask16_327_678" style="mask-type:luminance" maskUnits="userSpaceOnUse" x="-43803" y="-43374" width="87381" height="87381">
<path d="M-43802.7 -43373.3H43577.3V44006.7H-43802.7V-43373.3Z" fill="url(#paint14_linear_327_678)"/>
</mask>
<g mask="url(#mask16_327_678)">
<path d="M90.6579 5.9719C77.0152 6.91857 64.1686 10.7866 52.7539 16.9492H141.735C141.733 16.9479 141.726 16.9439 141.723 16.9426C141.699 16.9292 141.671 16.9146 141.649 16.9012C141.595 16.8719 141.546 16.8479 141.494 16.8199C141.455 16.7986 141.418 16.7772 141.381 16.7586C141.342 16.7386 141.306 16.7186 141.267 16.6986C141.217 16.6706 141.165 16.6439 141.113 16.6172C141.085 16.5999 141.059 16.5866 141.03 16.5719C140.961 16.5359 140.889 16.4972 140.818 16.4599C140.809 16.4546 140.797 16.4492 140.787 16.4439C129.609 10.5746 117.099 6.8919 103.833 5.9719H90.6579Z" fill="url(#paint15_linear_327_678)"/>
</g>
</g>
<mask id="mask17_327_678" style="mask-type:luminance" maskUnits="userSpaceOnUse" x="52" y="182" width="90" height="12">
<path d="M52.752 182.076C52.7546 182.077 52.7613 182.08 52.7639 182.081C52.7893 182.096 52.8159 182.11 52.8386 182.124C52.8919 182.15 52.9413 182.177 52.9933 182.204C53.0306 182.225 53.068 182.246 53.1066 182.266C53.1453 182.286 53.1813 182.306 53.2213 182.326C53.2706 182.354 53.3226 182.381 53.3746 182.408C53.4026 182.424 53.4266 182.437 53.4573 182.452C53.5266 182.489 53.5986 182.526 53.6693 182.564C53.6786 182.569 53.6906 182.576 53.7013 182.58C64.8786 188.45 77.3893 192.133 90.6546 193.052H103.829C117.472 192.105 130.319 188.238 141.733 182.076H52.752Z" fill="white"/>
</mask>
<g mask="url(#mask17_327_678)">
<mask id="mask18_327_678" style="mask-type:luminance" maskUnits="userSpaceOnUse" x="-43803" y="-43374" width="87381" height="87381">
<path d="M-43802.7 -43373.3H43577.3V44006.7H-43802.7V-43373.3Z" fill="url(#paint16_linear_327_678)"/>
</mask>
<g mask="url(#mask18_327_678)">
<path d="M52.7539 182.075C52.7566 182.076 52.7632 182.079 52.7659 182.08C52.7912 182.095 52.8179 182.109 52.8406 182.123C52.8939 182.149 52.9432 182.176 52.9952 182.203C53.0326 182.224 53.0699 182.245 53.1086 182.265C53.1472 182.285 53.1832 182.305 53.2232 182.325C53.2726 182.353 53.3246 182.38 53.3766 182.407C53.4046 182.423 53.4286 182.436 53.4592 182.451C53.5286 182.488 53.6006 182.525 53.6712 182.563C53.6806 182.568 53.6926 182.575 53.7032 182.579C64.8806 188.449 77.3912 192.132 90.6566 193.051H103.831C117.474 192.104 130.321 188.237 141.735 182.075H52.7539Z" fill="url(#paint17_linear_327_678)"/>
</g>
</g>
</g>
<defs>
<linearGradient id="paint0_linear_327_678" x1="11.768" y1="143.642" x2="46.8986" y2="143.642" gradientUnits="userSpaceOnUse">
<stop stop-color="white"/>
<stop offset="0.84554" stop-color="white" stop-opacity="0"/>
<stop offset="1" stop-color="white" stop-opacity="0"/>
</linearGradient>
<linearGradient id="paint1_linear_327_678" x1="11.7662" y1="143.646" x2="46.8968" y2="143.646" gradientUnits="userSpaceOnUse">
<stop stop-color="#7D6F45"/>
<stop offset="0.84554" stop-color="#7D6F45"/>
<stop offset="1" stop-color="#7D6F45"/>
</linearGradient>
<linearGradient id="paint2_linear_327_678" x1="4.94142" y1="121.676" x2="68.7612" y2="121.676" gradientUnits="userSpaceOnUse">
<stop stop-color="white"/>
<stop offset="0.84554" stop-color="white" stop-opacity="0"/>
<stop offset="1" stop-color="white" stop-opacity="0"/>
</linearGradient>
<linearGradient id="paint3_linear_327_678" x1="4.94121" y1="121.679" x2="68.761" y2="121.679" gradientUnits="userSpaceOnUse">
<stop stop-color="#7D6F45"/>
<stop offset="0.84554" stop-color="#7D6F45"/>
<stop offset="1" stop-color="#7D6F45"/>
</linearGradient>
<linearGradient id="paint4_linear_327_678" x1="11.5979" y1="55.7862" x2="132.815" y2="55.7862" gradientUnits="userSpaceOnUse">
<stop stop-color="white"/>
<stop offset="0.84554" stop-color="white" stop-opacity="0"/>
<stop offset="1" stop-color="white" stop-opacity="0"/>
</linearGradient>
<linearGradient id="paint5_linear_327_678" x1="11.5941" y1="55.7877" x2="132.812" y2="55.7877" gradientUnits="userSpaceOnUse">
<stop stop-color="#7D6F45"/>
<stop offset="0.84554" stop-color="#7D6F45"/>
<stop offset="1" stop-color="#7D6F45"/>
</linearGradient>
<linearGradient id="paint6_linear_327_678" x1="4.87693" y1="77.7501" x2="112.689" y2="77.7501" gradientUnits="userSpaceOnUse">
<stop stop-color="white"/>
<stop offset="0.84554" stop-color="white" stop-opacity="0"/>
<stop offset="1" stop-color="white" stop-opacity="0"/>
</linearGradient>
<linearGradient id="paint7_linear_327_678" x1="4.874" y1="77.7533" x2="112.686" y2="77.7533" gradientUnits="userSpaceOnUse">
<stop stop-color="#7D6F45"/>
<stop offset="0.84554" stop-color="#7D6F45"/>
<stop offset="1" stop-color="#7D6F45"/>
</linearGradient>
<linearGradient id="paint8_linear_327_678" x1="3.59039" y1="99.7161" x2="90.7267" y2="99.7161" gradientUnits="userSpaceOnUse">
<stop stop-color="white"/>
<stop offset="0.84554" stop-color="white" stop-opacity="0"/>
<stop offset="1" stop-color="white" stop-opacity="0"/>
</linearGradient>
<linearGradient id="paint9_linear_327_678" x1="3.58995" y1="99.7188" x2="90.7263" y2="99.7188" gradientUnits="userSpaceOnUse">
<stop stop-color="#7D6F45"/>
<stop offset="0.84554" stop-color="#7D6F45"/>
<stop offset="1" stop-color="#7D6F45"/>
</linearGradient>
<linearGradient id="paint10_linear_327_678" x1="25.669" y1="165.605" x2="168.825" y2="165.605" gradientUnits="userSpaceOnUse">
<stop stop-color="white"/>
<stop offset="0.915672" stop-color="white" stop-opacity="0"/>
<stop offset="1" stop-color="white" stop-opacity="0"/>
</linearGradient>
<linearGradient id="paint11_linear_327_678" x1="25.6641" y1="165.608" x2="168.82" y2="165.608" gradientUnits="userSpaceOnUse">
<stop stop-color="#7D6F45"/>
<stop offset="0.915672" stop-color="#7D6F45"/>
<stop offset="1" stop-color="#7D6F45"/>
</linearGradient>
<linearGradient id="paint12_linear_327_678" x1="25.5159" y1="33.6199" x2="168.976" y2="33.6199" gradientUnits="userSpaceOnUse">
<stop stop-color="white"/>
<stop offset="0.999576" stop-color="white" stop-opacity="0.149996"/>
<stop offset="1" stop-color="white" stop-opacity="0.149996"/>
</linearGradient>
<linearGradient id="paint13_linear_327_678" x1="25.5106" y1="33.6236" x2="168.97" y2="33.6236" gradientUnits="userSpaceOnUse">
<stop stop-color="#7D6F45"/>
<stop offset="0.999576" stop-color="#7D6F45"/>
<stop offset="1" stop-color="#7D6F45"/>
</linearGradient>
<linearGradient id="paint14_linear_327_678" x1="52.7542" y1="11.4555" x2="141.736" y2="11.4555" gradientUnits="userSpaceOnUse">
<stop stop-color="white"/>
<stop offset="0.999576" stop-color="white" stop-opacity="0.149996"/>
<stop offset="1" stop-color="white" stop-opacity="0.149996"/>
</linearGradient>
<linearGradient id="paint15_linear_327_678" x1="52.7536" y1="11.4605" x2="141.736" y2="11.4605" gradientUnits="userSpaceOnUse">
<stop stop-color="#7D6F45"/>
<stop offset="0.999576" stop-color="#7D6F45"/>
<stop offset="1" stop-color="#7D6F45"/>
</linearGradient>
<linearGradient id="paint16_linear_327_678" x1="141.736" y1="187.561" x2="52.7542" y2="187.561" gradientUnits="userSpaceOnUse">
<stop stop-color="white" stop-opacity="0.149996"/>
<stop offset="1" stop-color="white"/>
</linearGradient>
<linearGradient id="paint17_linear_327_678" x1="141.736" y1="187.563" x2="52.7536" y2="187.563" gradientUnits="userSpaceOnUse">
<stop stop-color="#7D6F45"/>
<stop offset="1" stop-color="#7D6F45"/>
</linearGradient>
<clipPath id="clip0_327_678">
<rect width="449" height="200" fill="white"/>
</clipPath>
</defs>
</svg>
