<svg width="100" height="122" viewBox="0 0 100 122" fill="none" xmlns="http://www.w3.org/2000/svg">
<path fill-rule="evenodd" clip-rule="evenodd" d="M0.176413 44.2643C2.23825 19.2507 23.141 0 48.2395 0H50.8311C75.9296 0 96.8324 19.2507 98.8942 44.2643C100.004 57.7319 95.8443 71.1047 87.2903 81.5659L58.5319 116.737C53.8821 122.423 45.1885 122.423 40.5387 116.737L11.7803 81.566C3.22635 71.1047 -0.933696 57.7319 0.176413 44.2643Z" fill="#A4A4A4"/>
<circle cx="50" cy="49" r="43" fill="white"/>
<path d="M35.5559 30.8V70.0001H53.3919C63.3319 70.0001 68.2879 65.9681 68.2879 58.7721C68.2879 54.7681 65.5439 51.4081 62.0719 50.1761C65.2079 48.7761 67.4759 45.7521 67.4759 41.8881C67.4759 34.6921 62.3239 30.8 52.4119 30.8H35.5559ZM52.9159 54.2081C56.5279 54.2081 58.6279 55.3001 58.6279 58.1561C58.6279 61.0961 56.5279 62.1601 52.9159 62.1601H44.9079V54.2081H52.9159ZM52.1879 38.668C55.5479 38.668 57.7319 39.648 57.7319 42.5041C57.7319 45.4161 55.5479 46.396 52.1879 46.396H44.9079V38.668H52.1879Z" fill="#8A8A8A"/>
</svg>
