<svg xmlns="http://www.w3.org/2000/svg" width="90" height="142" viewBox="0 0 90 142" fill="none">
<g clip-path="url(#clip0_1070_16035)">
<path d="M45 1.5C56.6353 1.5 67.5155 5.09268 75.4638 12.0156C83.3846 18.9146 88.5 29.2097 88.5 42.868C88.5 45.5952 87.7547 49.0564 86.7726 52.353C85.8031 55.607 84.6403 58.5791 83.8693 60.3146L45 138.626L6.13068 60.3145C5.35963 58.579 4.19684 55.6069 3.22744 52.353C2.24534 49.0564 1.5 45.5952 1.5 42.868C1.5 29.2097 6.61538 18.9146 14.5362 12.0156C22.4845 5.09268 33.3647 1.5 45 1.5Z" fill="white" stroke="#00263E" stroke-width="3"/>
<path d="M32.7507 51.6321C37.4096 52.4441 44.0282 51.5952 49.6299 48.9012C53.9006 46.7976 55.8972 44.9892 58.9107 41.9999C65.8436 35.4492 68.3394 36.2058 73.2756 36.0028C57.1359 30.8361 59.3729 47.1851 32.7692 51.6321" fill="#2BA99B"/>
<path d="M59.503 68L52.4038 47.7206H34.3044L27.2052 68H17L37.7431 11H49.002L69.6342 67.9816H59.5215L59.503 68ZM34.3044 47.7206H52.4038L43.3448 21.9977L34.2859 47.7206H34.3044Z" fill="#00263E"/>
<path d="M29.8672 48.6062C34.4521 49.5289 40.9413 48.8461 46.4506 46.3181C50.6657 44.3252 52.6069 42.5907 55.5835 39.7121C62.4239 33.3829 64.8642 34.1948 69.708 34.1025C53.8826 28.5667 56.0272 44.8604 29.8672 48.6062Z" fill="#1695D3"/>
</g>
<defs>
<clipPath id="clip0_1070_16035">
<rect width="90" height="142" fill="white"/>
</clipPath>
</defs>
</svg>