<svg xmlns="http://www.w3.org/2000/svg" width="56" height="90" fill="none" viewBox="0 0 56 90">
  <path fill="#7A9049" fill-rule="evenodd" d="M56 27.17C56 9.34 42.849 0 28 0v90l25.03-51.368C54.02 36.368 56 30.906 56 27.17Zm-56 0C0 9.34 13.152 0 28 0v90L2.97 38.632C1.98 36.368 0 30.906 0 27.17Z" clip-rule="evenodd"/>
  <path fill="#fff" fill-rule="evenodd" d="M26.69 11A6.69 6.69 0 0 0 20 17.69v.81a3 3 0 0 0 3 3h1.104A1.896 1.896 0 0 0 26 19.604a2.323 2.323 0 0 1 2.323-2.323h.104A2.573 2.573 0 0 1 31 19.855v.32a3.138 3.138 0 0 1-3.138 3.137h-1.7A6.162 6.162 0 0 0 20 29.476v11.41A4.114 4.114 0 0 0 24.114 45h9.27A3.616 3.616 0 0 0 37 41.384V19.019A8.02 8.02 0 0 0 28.98 11h-2.29ZM22 17.69C22 15.1 24.1 13 26.69 13h2.29A6.02 6.02 0 0 1 35 19.02v22.364c0 .892-.724 1.616-1.616 1.616h-9.27A2.114 2.114 0 0 1 22 40.886V29.475a4.162 4.162 0 0 1 4.162-4.163h1.7c2.837 0 5.138-2.3 5.138-5.138v-.32a4.573 4.573 0 0 0-4.573-4.573h-.104A4.323 4.323 0 0 0 24 19.5h-1a1 1 0 0 1-1-1v-.81Zm4 16.81a2.5 2.5 0 1 1 5 0 2.5 2.5 0 0 1-5 0Zm2.5-4.5a4.5 4.5 0 1 0 0 9 4.5 4.5 0 0 0 0-9Z" clip-rule="evenodd"/>
</svg>
