<svg xmlns="http://www.w3.org/2000/svg" width="90" height="142" fill="none" viewBox="0 0 90 142">
  <path fill="#1C1D22" fill-rule="evenodd" d="M90 42.868C90 14.736 68.864 0 45 0v142l40.227-81.047C86.818 57.38 90 48.763 90 42.868Zm-90 0C0 14.736 21.136 0 45 0v142L4.773 60.953C3.182 57.38 0 48.763 0 42.868Z" clip-rule="evenodd"/>
  <path fill="#fff" fill-rule="evenodd" d="M61.998 51.395c-.18-4.569-1.262-9.526-2.975-14.58-.271.971-.542 2.04-.812 3.207-.902 3.597-1.984 7.776-4.419 12.053-1.263 2.236-2.345 4.569-3.156 6.804 2.885-.389 4.599-2.041 6.312-3.693 1.353-1.459 2.886-2.916 5.05-3.791ZM47.93 71.127C58.12 69.669 62.09 62.379 62 52.853c-1.804.777-3.067 2.041-4.33 3.207-1.983 1.944-3.967 3.889-7.665 4.083-.27.875-.54 1.75-.721 2.624a49.164 49.164 0 0 0-1.353 8.36Zm-2.435 7.776c-.36-.68-.631-1.361-.902-2.139-.54-1.652-.992-3.596-.992-5.151l2.526-.097c.09 1.36.36 3.11.901 4.568.451 1.264.992 2.43 1.533 2.916h-3.066v-.097ZM28 53.436c.09 8.845 3.878 15.747 13.076 17.496-1.803-3.207-2.976-6.804-3.877-10.595h-.451c-1.533-.097-3.337-.875-4.96-2.333-1.353-1.069-2.706-2.624-3.788-4.568Zm2.164-13.803c-1.082 3.791-1.803 7.582-2.074 11.081.09.292.27.584.36.778 1.173 2.333 2.616 4.18 4.06 5.443 1.442 1.264 2.975 1.944 4.328 2.041h.09c-.27-.972-.45-1.944-.631-2.916-1.443-6.026-2.706-12.053-6.133-16.427Zm7.125-16.816a84.55 84.55 0 0 0-6.313 14.095c1.894 2.04 3.246 4.47 4.239 7.095 1.893-3.79 2.615-8.456 2.615-12.927.09-2.82-.09-5.638-.541-8.263ZM43.872 13a73.78 73.78 0 0 0-5.591 8.165c.54 3.013.901 6.512.901 10.012-.09 5.054-.992 10.303-3.336 14.58 1.082 3.11 1.803 6.415 2.615 9.817 1.172 5.25 2.345 10.498 4.96 14.775-1.623-10.595-.812-21.773 0-32.66.541-8.748 1.172-17.204.451-24.689Zm8.838 9.817c-1.984-3.499-4.239-6.804-6.584-9.817.632 7.679.09 16.038-.54 24.69-.271 3.693-.542 7.484-.722 11.275 4.6-3.888 5.41-10.304 6.042-16.525.451-3.402.812-6.707 1.804-9.623Zm5.05 10.595c-1.172-3.11-2.615-6.123-4.148-9.04-.722 2.528-.992 5.347-1.353 8.263-.812 6.901-1.623 13.997-7.395 18.08-.27 6.706-.18 13.316.902 19.634.18-2.333.631-5.249 1.443-8.262.992-3.597 2.435-7.582 4.69-11.373 2.254-3.985 3.246-7.97 4.148-11.372.45-2.236.992-4.277 1.713-5.93Z" clip-rule="evenodd"/>
</svg>
