<svg xmlns="http://www.w3.org/2000/svg" width="57" height="90" fill="none" viewBox="0 0 57 90">
  <path fill="#1C1D22" fill-rule="evenodd" d="M57 27.17C57 9.34 43.849 0 29 0v90l25.03-51.368C55.02 36.368 57 30.906 57 27.17Zm-56 0C1 9.34 14.152 0 29 0v90L3.97 38.632C2.98 36.368 1 30.906 1 27.17Z" clip-rule="evenodd"/>
  <path fill="#fff" d="M45.998 13H39.2v3.332h6.798V13Zm0 6.668H32.4V23h13.598v-3.332Zm0 20H12V43h33.998v-3.332Zm0-6.668H18.8v3.332h27.197V33ZM46 26.331H25.6v3.337H46V26.33Z"/>
</svg>
