<svg xmlns="http://www.w3.org/2000/svg" width="56" height="90" fill="none" viewBox="0 0 56 90">
  <path fill="#7A9049" fill-rule="evenodd" d="M56 27.17C56 9.34 42.849 0 28 0v90l25.03-51.368C54.02 36.368 56 30.906 56 27.17Zm-56 0C0 9.34 13.152 0 28 0v90L2.97 38.632C1.98 36.368 0 30.906 0 27.17Z" clip-rule="evenodd"/>
  <path fill="#fff" fill-rule="evenodd" d="M20.524 13.561c-4.331.551-7.543 4.909-6.96 9.91.452 3.878 3.032 6.809 6.188 7.671V28.46l-3.037-3.21a1 1 0 1 1 1.453-1.375l1.584 1.675v-6.397a1 1 0 0 1 2 0v4.641l2.915-3.066a1 1 0 0 1 1.45 1.377l-4.365 4.592v4.705a7.232 7.232 0 0 0 1.85-.257 2.987 2.987 0 0 1-.343-1.394v-.149a3 3 0 0 1 3-3h2.506a.987.987 0 0 1 .029-.071 9.69 9.69 0 0 0 .765-5.096c-.584-5-4.703-8.425-9.035-7.874Zm10.39 13.041c.61-1.663.85-3.515.629-5.419-.69-5.918-5.652-10.32-11.25-9.608-5.598.712-9.403 6.23-8.713 12.148.56 4.801 3.93 8.605 8.172 9.489v5.452a4.097 4.097 0 0 0-.497.105 3.468 3.468 0 0 0-2.47-1.03c-.99 0-1.873.356-2.51 1.004-.634.645-.97 1.521-.97 2.465 0 .47.063.906.158 1.294h-.486a1 1 0 1 0 0 2H43.5a1 1 0 1 0 0-2h-3.003a2.34 2.34 0 0 0 .023-.327v-2.51h.318a3 3 0 0 0 3-3v-.148a3 3 0 0 0-3-3h-1.645v-.766h.318a3 3 0 0 0 3-3v-.149a3 3 0 0 0-3-3h-8.597Zm6.279 6.15v.765h-8.617v-.766h8.617Zm-10.617 0v.765h-1.644a3 3 0 0 0-3 3v.148a3 3 0 0 0 3 3h.317v2.51c0 .11.008.22.023.327h-.685c-.062-1.12-.459-2.07-1.124-2.762a3.658 3.658 0 0 0-1.71-1.004v-5.33a9.356 9.356 0 0 0 3.514-.727 1.14 1.14 0 0 0 .116-.058 3 3 0 0 0 .876.13h.317Zm8.882 9.75h.43a2.34 2.34 0 0 1-.022-.327v-2.51h-5.962v2.51c0 .11-.008.22-.023.327h5.577Zm-19.898 0h7.022c-.056-.646-.286-1.09-.56-1.377a1.726 1.726 0 0 0-1.27-.518c-.495 0-.942.016-1.32.233l-.893.514-.486-.909a1.461 1.461 0 0 0-.41-.43 1.451 1.451 0 0 0-.858-.276c-.498 0-.854.172-1.085.407-.233.237-.394.595-.394 1.062 0 .535.128.988.254 1.294Zm9.699-12.9a1 1 0 0 1 1-1H39.51a1 1 0 0 1 1 1v.15a1 1 0 0 1-1 1H26.259a1 1 0 0 1-1-1v-.15Zm-.327 5.915a1 1 0 0 0-1 1v.148a1 1 0 0 0 1 1h15.906a1 1 0 0 0 1-1v-.148a1 1 0 0 0-1-1H24.932Zm2.317 6.658v-2.052h.655v2.052a.327.327 0 0 1-.655 0Zm10.617-2.052v2.052a.327.327 0 0 0 .654 0v-2.052h-.654Z" clip-rule="evenodd"/>
</svg>
