<svg width="100" height="122" viewBox="0 0 100 122" fill="none" xmlns="http://www.w3.org/2000/svg">
<path fill-rule="evenodd" clip-rule="evenodd" d="M0.176413 44.2643C2.23825 19.2507 23.141 0 48.2395 0H50.8311C75.9296 0 96.8324 19.2507 98.8942 44.2643C100.004 57.7319 95.8443 71.1047 87.2903 81.5659L58.5319 116.737C53.8821 122.423 45.1885 122.423 40.5387 116.737L11.7803 81.566C3.22635 71.1047 -0.933696 57.7319 0.176413 44.2643Z" fill="black"/>
<circle cx="50" cy="49" r="43" fill="white"/>
<path d="M88.9999 48.1741H76.1084V48.9117H88.9999V48.1741Z" fill="black"/>
<path d="M76.1085 54.7725H52.3523V56.4802H76.1085V54.7725Z" fill="black"/>
<path d="M76.1085 50.6194H52.3523V52.3272H76.1085V50.6194Z" fill="black"/>
<path d="M76.1085 58.9258H52.3523V60.6336H76.1085V58.9258Z" fill="black"/>
<path d="M76.1085 46.4661H52.3523V48.1739H76.1085V46.4661Z" fill="black"/>
<path d="M88.9999 56.4802H76.1084V57.2178H88.9999V56.4802Z" fill="black"/>
<path d="M88.9999 52.3271H76.1084V53.0648H88.9999V52.3271Z" fill="black"/>
<path d="M88.9999 60.6401H76.1084V61.3777H88.9999V60.6401Z" fill="black"/>
<path d="M52.3523 56.4802H45.6873V57.2178H52.3523V56.4802Z" fill="black"/>
<path d="M52.3523 52.3271H45.6873V53.0648H52.3523V52.3271Z" fill="black"/>
<path d="M52.3523 60.6401H45.6873V61.3777H52.3523V60.6401Z" fill="black"/>
<path d="M52.3523 48.1741H45.6873V48.9117H52.3523V48.1741Z" fill="black"/>
<path d="M45.6939 46.4661H24.8882V48.1739H45.6939V46.4661Z" fill="black"/>
<path d="M45.6939 58.9258H24.8882V60.6336H45.6939V58.9258Z" fill="black"/>
<path d="M45.6939 50.6194H24.8882V52.3272H45.6939V50.6194Z" fill="black"/>
<path d="M45.6939 54.7725H24.8882V56.4802H45.6939V54.7725Z" fill="black"/>
<path d="M24.8882 48.1741H11V48.9117H24.8882V48.1741Z" fill="black"/>
<path d="M24.8882 52.3271H11V53.0648H24.8882V52.3271Z" fill="black"/>
<path d="M24.8882 56.4802H11V57.2178H24.8882V56.4802Z" fill="black"/>
<path d="M24.8882 60.6401H11V61.3777H24.8882V60.6401Z" fill="black"/>
<path d="M52.3524 35.7078H11V36.4454H52.3524V35.7078Z" fill="black"/>
<path d="M88.9999 35.7078H76.1084V36.4454H88.9999V35.7078Z" fill="black"/>
<path d="M76.1085 34H52.3523V35.7078H76.1085V34Z" fill="black"/>
<path d="M52.3524 39.8677H11V40.6053H52.3524V39.8677Z" fill="black"/>
<path d="M88.9999 39.8677H76.1084V40.6053H88.9999V39.8677Z" fill="black"/>
<path d="M76.1085 38.1533H52.3523V39.8611H76.1085V38.1533Z" fill="black"/>
<path d="M24.8882 44.0208H11V44.7584H24.8882V44.0208Z" fill="black"/>
<path d="M45.6939 42.3064H24.8882V44.0142H45.6939V42.3064Z" fill="black"/>
<path d="M52.3523 44.0208H45.6873V44.7584H52.3523V44.0208Z" fill="black"/>
<path d="M88.9999 44.0208H76.1084V44.7584H88.9999V44.0208Z" fill="black"/>
<path d="M76.1085 42.3064H52.3523V44.0142H76.1085V42.3064Z" fill="black"/>
</svg>
