<svg width="100" height="122" viewBox="0 0 100 122" fill="none" xmlns="http://www.w3.org/2000/svg">
<path fill-rule="evenodd" clip-rule="evenodd" d="M0.176413 44.2643C2.23825 19.2507 23.141 0 48.2395 0H50.8311C75.9296 0 96.8324 19.2507 98.8942 44.2643C100.004 57.7319 95.8443 71.1047 87.2903 81.5659L58.5319 116.737C53.8821 122.423 45.1885 122.423 40.5387 116.737L11.7803 81.566C3.22635 71.1047 -0.933696 57.7319 0.176413 44.2643Z" fill="#002469"/>
<circle cx="50" cy="49" r="43" fill="white"/>
<path d="M44.5255 56.5222C44.5255 55.6214 47.588 54.1731 51.7485 52.7819C59.087 50.4329 77 44.4575 77 32.2674C77 27.6148 72.8511 24 67.1536 24C48.0156 24 37.2563 44.1496 32.726 57.1836C31.4432 60.9923 27.5255 69.5562 26.2427 71.2439C26.0578 71.4948 26 71.6772 26 71.8483C26 72.0991 26.1271 72.2132 26.4854 72.2132C29.6635 72.2132 34.6791 63.5239 38.1115 54.2872C43.7396 39.1436 54.3141 24.9693 65.8708 24.9693C70.6438 24.9693 72.9089 28.1052 72.9089 32.0279C72.9089 46.875 54.3141 49.2241 45.138 54.3556C43.7396 55.1424 43.312 56.0433 43.312 56.8301C43.312 58.8827 48.0156 60.0801 48.0156 64.7326C48.0156 68.2334 44.225 71.6772 40.1224 71.6772C38.8396 71.6772 37.5568 71.3693 36.3317 70.5825C36.274 70.5255 36.2162 70.5255 36.1468 70.5255C35.9041 70.5255 35.7886 70.765 35.7886 71.0728C35.7886 72.8175 40.4344 73 41.4167 73C47.7729 73 51.8063 69.0202 51.8063 65.28C51.8063 60.2055 44.5255 58.3353 44.5255 56.5222Z" fill="#031B73"/>
</svg>
