<svg xmlns="http://www.w3.org/2000/svg" width="57" height="90" fill="none" viewBox="0 0 57 90">
  <path fill="#1C1D22" fill-rule="evenodd" d="M57 27.17C57 9.34 43.849 0 29 0v90l25.03-51.368C55.02 36.368 57 30.906 57 27.17Zm-56 0C1 9.34 14.152 0 29 0v90L3.97 38.632C2.98 36.368 1 30.906 1 27.17Z" clip-rule="evenodd"/>
  <path fill="#C7532E" d="M16.006 19.546c3.903-1.714 10.52-4.408 13.526-4.363 4.397.066 7.941 2.805 7.874 6.121-.067 3.317-3.657 5.944-8.053 5.877-3.029-.045-9.668-3.005-13.482-4.83l-2.736-1.358h-.023l-.067-.045H13c0-.022.022-.022.045-.044h.067l.09-.045.202-.089 2.602-1.224Z"/>
  <path fill="#7ED2F6" d="m13.392 20.714-.13.065-.262.13h.044l.065.043h.022l.305.152.065.043 1.96.974.327.152a5.385 5.385 0 0 1 2.07-1.212c.194-.039.383-.097.566-.174l-.545-.173a5.035 5.035 0 0 1-1.96-1.169l-2.527 1.17Z"/>
  <path fill="#E6643B" d="m45 13.297-3.703-.27a8.432 8.432 0 0 0-3.747.558 8.606 8.606 0 0 0-3.152 2.15l-19.77 19.414 14.15.18a11.165 11.165 0 0 0 7.753-2.35 11.667 11.667 0 0 0 4.26-7.04L45 13.297Z"/>
  <path fill="#E6643B" d="M40.493 30.694c-1.062 2.658-5.76 7.415-8.64 10.184C30.49 42.151 29.537 43 29.537 43s-.087-1.318-.174-3.283a101.928 101.928 0 0 1-.086-5.338c.022-3.171.238-6.41.888-8.04 1.537-3.863 5.11-6.03 7.946-4.824a4.68 4.68 0 0 1 1.602 1.162c1.602 1.831 1.992 5.002.78 8.04"/>
  <path fill="#fff" d="M40.526 27.301a3.096 3.096 0 0 1-1.614 1.086c-.556.14-1.135.17-1.703.088a2.3 2.3 0 0 1-1.26-.642 2.384 2.384 0 0 1-.31-.355 2.02 2.02 0 0 1-.398-1.063c-.066-1.085.84-2.348 2.013-2.17a.928.928 0 0 1 .685.42 1.196 1.196 0 0 1-.022 1.507c-.17.171-.385.293-.619.354 0 0 .663.376 1.238.066a1.592 1.592 0 0 0 .73-1.306 2.15 2.15 0 0 0-1.46-2.038 3.597 3.597 0 0 0-2.21 0c-1.416.42-2.5 1.572-3.295 2.768l-.222.333-.199.376a14.72 14.72 0 0 0-1.238 2.68c-.442 1.218-.796 3.057-1.083 4.32-.111.575-.2 1.085-.288 1.638.022-3.3.265-7.131.951-8.837 1.636-4.01 5.285-6.268 8.491-4.984 1.725.687 3.494 3.677 1.813 5.76Z"/>
  <path fill="#fff" d="M36.75 27.841a1.09 1.09 0 0 0-.417.297 2.152 2.152 0 0 0-.492.94c-.085.352-.081.721.01 1.071a2.005 2.005 0 0 0 .876 1.166c.044.045.395.182.417.228.021.046-.088-.663-.11-.754a2.638 2.638 0 0 1 .102-1.063c.105-.342.28-.658.512-.925.438-.48 1.117-.571 1.687-.845.11-.046.132-.16.241-.229l-2.827.114Z"/>
  <path fill="#7ED2F6" d="M31.677 38.09s-.024.256-.047.575a4.37 4.37 0 0 0 .353 2.316A157.153 157.153 0 0 1 29.46 43s-.094-1.254-.189-3.124a5.248 5.248 0 0 0 2.005-1.36l.4-.425Z"/>
</svg>
