<svg xmlns="http://www.w3.org/2000/svg" width="56" height="90" fill="none" viewBox="0 0 56 90">
  <path fill="#7A9049" fill-rule="evenodd" d="M56 27.17C56 9.34 42.849 0 28 0v90l25.03-51.368C54.02 36.368 56 30.906 56 27.17Zm-56 0C0 9.34 13.152 0 28 0v90L2.97 38.632C1.98 36.368 0 30.906 0 27.17Z" clip-rule="evenodd"/>
  <path fill="#fff" fill-rule="evenodd" d="M12.012 13a1 1 0 1 0 0 2h2.596l.708 2.423 1.929 6.598 1.928 6.599 1.286 4.399.21.72h19.58a1 1 0 1 0 0-2H22.168l-.701-2.4h20.241l.168-.791L44.69 17.35l.258-1.209H17.025l-.707-2.422-.21-.72h-4.096ZM24.86 29.34h-3.978l-1.344-4.6h4.87l.452 4.6Zm-.649-6.6h-5.257l-1.344-4.598h6.149l.452 4.599Zm2.01 0-.453-4.598h8.634l-.377 4.599H26.22Zm9.81 0 .377-4.598h6.068l-.98 4.599H36.03Zm-.164 2h5.202l-.98 4.6H35.49l.377-4.6Zm-2.006 0-.377 4.6H26.87l-.453-4.6h7.444Zm2.788 13.788c.254-.261.585-.407.942-.407s.689.146.943.407c.255.262.418.63.418 1.05 0 .42-.163.786-.418 1.049a1.305 1.305 0 0 1-.943.407c-.357 0-.688-.146-.942-.407a1.494 1.494 0 0 1-.42-1.05c0-.42.165-.787.42-1.049Zm-12.597.001.002-.001c.254-.261.585-.407.942-.407s.689.146.943.407c.255.262.418.63.418 1.05 0 .42-.163.786-.418 1.049a1.305 1.305 0 0 1-.943.407c-.357 0-.688-.146-.942-.407a1.495 1.495 0 0 1-.42-1.05c0-.42.165-.788.418-1.048Zm4.305 1.048c0 .955-.376 1.818-.985 2.444a3.304 3.304 0 0 1-2.376 1.013 3.304 3.304 0 0 1-2.376-1.013 3.494 3.494 0 0 1-.985-2.444c0-.954.376-1.819.985-2.443a3.304 3.304 0 0 1 2.376-1.013c.928 0 1.768.387 2.377 1.013.608.626.984 1.49.984 2.443Zm6.858-2.443a3.304 3.304 0 0 1 2.376-1.013c.928 0 1.768.387 2.377 1.013.608.626.984 1.49.984 2.443 0 .955-.376 1.818-.984 2.444a3.304 3.304 0 0 1-2.377 1.013 3.304 3.304 0 0 1-2.376-1.013 3.494 3.494 0 0 1-.985-2.444c0-.954.376-1.818.985-2.443Z" clip-rule="evenodd"/>
</svg>
