<svg xmlns="http://www.w3.org/2000/svg" width="56" height="90" fill="none" viewBox="0 0 56 90">
  <path fill="#7A9049" fill-rule="evenodd" d="M56 27.17C56 9.34 42.849 0 28 0v90l25.03-51.368C54.02 36.368 56 30.906 56 27.17Zm-56 0C0 9.34 13.152 0 28 0v90L2.97 38.632C1.98 36.368 0 30.906 0 27.17Z" clip-rule="evenodd"/>
  <path fill="#fff" fill-rule="evenodd" d="M20.965 26.52c-1.144-.322-2.347-.812-3.28-1.573l-1.216.919-.268.202h-2.683v1.203l-.06.164L13 28.709v.295l2.792 1.278a3.5 3.5 0 0 1 5.834.642c2.995.072 8.25.127 12.748 0a3.5 3.5 0 0 1 6.226-.05c.43-.017.908-.053 1.344-.118a4.22 4.22 0 0 0 .859-.203c.044-.315.077-.511.103-.67l.01-.06c.029-.173.05-.31.078-.585a.843.843 0 0 0-.101-.163c-.142-.186-.428-.46-.96-.745-1.067-.572-3.053-1.146-6.53-1.146h-9.49c-.233.001-.493-.004-.773-.016-1.149-.051-2.696-.23-4.176-.648Zm20.017 6.338c.41-.023.846-.062 1.259-.124.465-.07.964-.178 1.38-.355.33-.14 1.021-.498 1.126-1.286.06-.453.1-.689.132-.882l.01-.06c.038-.228.067-.419.104-.804.05-.526-.183-1.055-.508-1.483-.348-.457-.875-.904-1.607-1.297-1.46-.782-3.808-1.383-7.475-1.383h-.012c-3.528-3.304-7.98-4.17-9.888-4.184H22.7c-2.33 0-4.629 1.21-5.501 1.809l-.02.013-.017.014-1.631 1.232h-2.352l-.029.002c-.26.015-.628.1-.96.34-.374.27-.672.725-.672 1.335v1.177l-.459 1.274-.059.164v1.928l.584.267 3.436 1.573a3.5 3.5 0 0 0 6.954.805c2.98.065 7.799.11 12.053 0a3.5 3.5 0 0 0 6.955-.075Zm-21.017-.033a1.5 1.5 0 1 1 .02-.54l-.02.54Zm6.22-9.782c1.416.15 3.735.721 5.956 2.14h-5.956v-2.14Zm-4.678 1.552c.897.253 1.839.41 2.679.497V23H22.7c-1.111 0-2.28.388-3.17.797.547.318 1.22.585 1.977.798ZM42.95 30.48c.002 0-.005.006-.024.017a.086.086 0 0 1 .024-.017ZM37.5 34a1.5 1.5 0 1 0 0-3 1.5 1.5 0 0 0 0 3Z" clip-rule="evenodd"/>
</svg>
