<svg xmlns="http://www.w3.org/2000/svg" width="390" height="134" fill="none" viewBox="0 0 390 134">
  <path fill="#7A9049" fill-rule="evenodd" d="M223 71.17C223 53.34 209.849 44 195 44v90l25.03-51.368c.99-2.264 2.97-7.726 2.97-11.462Zm-56 0C167 53.34 180.151 44 195 44v90l-25.03-51.368c-.99-2.264-2.97-7.726-2.97-11.462Z" clip-rule="evenodd"/>
  <path fill="#fff" d="M.5.5h389v37H.5z"/>
  <path fill="#1C1D22" d="M13.6 25V13.8h4c1.333 0 2.304.283 2.912.848.619.555.928 1.27.928 2.144 0 .576-.16 1.072-.48 1.488a2.75 2.75 0 0 1-1.184.88c.661.15 1.184.453 1.568.912.384.448.576 1.035.576 1.76 0 .608-.133 1.152-.4 1.632-.267.47-.693.843-1.28 1.12-.587.277-1.36.416-2.32.416H13.6Zm1.504-1.312h2.816c.96 0 1.616-.17 1.968-.512.352-.352.528-.816.528-1.392 0-.587-.176-1.05-.528-1.392-.352-.352-1.013-.528-1.984-.528h-2.8v3.824Zm0-5.072H17.6c.896 0 1.51-.165 1.84-.496.33-.33.496-.752.496-1.264 0-.523-.165-.944-.496-1.264-.33-.32-.944-.48-1.84-.48h-2.496v3.504Zm10.83 6.544c-.618 0-1.146-.112-1.583-.336a2.448 2.448 0 0 1-.976-.944 2.764 2.764 0 0 1-.336-1.36c0-.843.245-1.45.736-1.824.501-.373 1.216-.56 2.144-.56h2.752v-.576c0-.725-.166-1.227-.496-1.504-.32-.277-.806-.416-1.456-.416-.608 0-1.05.117-1.328.352-.278.224-.432.48-.464.768h-1.408c.032-.459.186-.864.464-1.216.277-.363.656-.65 1.136-.864.48-.213 1.04-.32 1.68-.32.672 0 1.253.107 1.744.32.49.203.87.528 1.136.976.266.437.4 1.019.4 1.744v4.624c.01.33.037.656.08.976h-1.232a8.667 8.667 0 0 1-.064-.688c-.01-.224-.016-.475-.016-.752-.224.448-.587.827-1.088 1.136-.502.31-1.11.464-1.824.464Zm.305-1.28c.448 0 .853-.08 1.216-.24.373-.16.666-.395.88-.704.224-.31.336-.688.336-1.136v-.576h-2.512c-.523 0-.934.107-1.232.32-.299.203-.448.528-.448.976 0 .395.138.72.416.976.288.256.736.384 1.344.384ZM32.086 25V13.8h1.408v4.24a3.2 3.2 0 0 1 .608-.832c.256-.256.565-.459.928-.608a3.18 3.18 0 0 1 1.264-.24c1.066 0 1.856.288 2.368.864.522.565.784 1.397.784 2.496V25h-1.408v-4.96c0-.79-.166-1.387-.496-1.792-.331-.405-.886-.608-1.664-.608-.555 0-1.008.117-1.36.352a2.182 2.182 0 0 0-.784.896c-.16.363-.24.747-.24 1.152V25h-1.408Zm12.643.16a4.16 4.16 0 0 1-1.968-.464c-.576-.32-1.034-.8-1.376-1.44-.33-.64-.496-1.445-.496-2.416v-.32c0-.917.182-1.685.544-2.304.363-.619.838-1.083 1.424-1.392a3.956 3.956 0 0 1 1.872-.464c.672 0 1.248.123 1.728.368.491.235.886.56 1.184.976.299.405.502.864.608 1.376h-1.44a2.828 2.828 0 0 0-.72-1.024c-.298-.277-.752-.416-1.36-.416-.416 0-.805.101-1.168.304-.362.192-.661.501-.896.928-.224.416-.336.965-.336 1.648v.32c0 .725.112 1.312.336 1.76.235.448.534.773.896.976.363.203.752.304 1.168.304.523 0 .96-.128 1.312-.384a2.04 2.04 0 0 0 .768-1.056h1.44a3.61 3.61 0 0 1-.688 1.456c-.33.405-.736.72-1.216.944a3.94 3.94 0 0 1-1.616.32Zm-.48 3.2a3.73 3.73 0 0 1-.368-.016 8.718 8.718 0 0 1-.288-.032l-.16-.032a.738.738 0 0 1-.144-.016v-.96l.224.032c.075.01.16.016.256.016.096.01.203.016.32.016.299 0 .512-.059.64-.176a.485.485 0 0 0 .192-.384.543.543 0 0 0-.16-.368c-.106-.117-.357-.176-.752-.176l.272-1.424h.96l-.112.768c.438.107.72.277.848.512s.192.475.192.72c0 .459-.154.827-.464 1.104-.309.277-.794.416-1.456.416Zm8.96-3.2a4.51 4.51 0 0 1-2.017-.464c-.618-.31-1.12-.784-1.504-1.424-.373-.64-.56-1.45-.56-2.432v-.32c0-.939.181-1.712.544-2.32.363-.619.843-1.077 1.44-1.376a4.149 4.149 0 0 1 1.936-.464c1.248 0 2.213.341 2.896 1.024.683.683 1.024 1.648 1.024 2.896v.896h-6.432c0 .661.133 1.19.4 1.584.278.395.619.683 1.024.864.416.17.832.256 1.248.256.64 0 1.13-.107 1.472-.32a1.78 1.78 0 0 0 .752-.88h1.376c-.17.81-.592 1.43-1.264 1.856-.661.416-1.44.624-2.336.624Zm-.08-7.52a3.11 3.11 0 0 0-1.249.256c-.395.16-.72.416-.976.768-.245.352-.368.805-.368 1.36h5.104c-.01-.587-.133-1.05-.368-1.392a1.862 1.862 0 0 0-.896-.752c-.373-.16-.79-.24-1.248-.24Zm7.92 7.44c-.586 0-1.066-.09-1.44-.272a1.745 1.745 0 0 1-.8-.88c-.16-.405-.24-.928-.24-1.568V13.8h1.408v8.56c0 .555.091.933.272 1.136.182.203.502.304.96.304h.304l.256-.032v1.248a2.779 2.779 0 0 1-.496.048 1.83 1.83 0 0 1-.224.016Zm2.245-.08v-8.48h1.408V25h-1.408Zm.704-9.6a.932.932 0 0 1-.688-.272.932.932 0 0 1-.272-.688c0-.277.091-.507.272-.688a.932.932 0 0 1 .688-.272.928.928 0 0 1 .96.96.93.93 0 0 1-.272.688.933.933 0 0 1-.688.272Zm6.458 9.76a4.51 4.51 0 0 1-2.016-.464c-.619-.31-1.12-.784-1.504-1.424-.374-.64-.56-1.45-.56-2.432v-.32c0-.939.181-1.712.544-2.32.362-.619.842-1.077 1.44-1.376a4.149 4.149 0 0 1 1.936-.464c1.248 0 2.213.341 2.896 1.024.682.683 1.024 1.648 1.024 2.896v.896h-6.432c0 .661.133 1.19.4 1.584a2.47 2.47 0 0 0 1.024.864c.416.17.832.256 1.248.256.64 0 1.13-.107 1.472-.32a1.78 1.78 0 0 0 .752-.88h1.376c-.171.81-.592 1.43-1.264 1.856-.662.416-1.44.624-2.336.624Zm-.08-7.52a3.11 3.11 0 0 0-1.248.256c-.395.16-.72.416-.976.768-.246.352-.368.805-.368 1.36h5.104c-.011-.587-.134-1.05-.368-1.392a1.862 1.862 0 0 0-.896-.752c-.374-.16-.79-.24-1.248-.24ZM77.984 25l-3.52-8.48h1.568l2.752 7.04 2.496-7.04h1.504l-3.2 8.48h-1.6Zm8.474.08c-.587 0-1.067-.09-1.44-.272a1.745 1.745 0 0 1-.8-.88c-.16-.405-.24-.928-.24-1.568V13.8h1.407v8.56c0 .555.091.933.272 1.136.182.203.502.304.96.304h.304l.256-.032v1.248a2.772 2.772 0 0 1-.496.048c-.085.01-.16.016-.224.016Zm5.448.08a4.51 4.51 0 0 1-2.016-.464c-.618-.31-1.12-.784-1.504-1.424-.373-.64-.56-1.45-.56-2.432v-.32c0-.939.182-1.712.544-2.32.363-.619.843-1.077 1.44-1.376a4.149 4.149 0 0 1 1.936-.464c1.248 0 2.214.341 2.896 1.024.683.683 1.024 1.648 1.024 2.896v.896h-6.432c0 .661.134 1.19.4 1.584.278.395.619.683 1.024.864.416.17.832.256 1.248.256.64 0 1.13-.107 1.472-.32a1.78 1.78 0 0 0 .752-.88h1.376c-.17.81-.592 1.43-1.264 1.856-.661.416-1.44.624-2.336.624Zm-.08-7.52a3.11 3.11 0 0 0-1.248.256 2.22 2.22 0 0 0-.976.768c-.245.352-.368.805-.368 1.36h5.104c-.01-.587-.133-1.05-.368-1.392a1.862 1.862 0 0 0-.896-.752c-.373-.16-.79-.24-1.248-.24ZM97.188 25v-8.48h1.311v1.6a2.91 2.91 0 0 1 .529-.896c.223-.267.495-.475.816-.624.33-.16.698-.24 1.104-.24.213 0 .384.01.512.032.138.021.261.048.368.08v1.312a2.024 2.024 0 0 0-.416-.112 3.532 3.532 0 0 0-.544-.032c-.427 0-.811.101-1.152.304a2.23 2.23 0 0 0-.816.848c-.203.352-.305.768-.305 1.248V25h-1.407Zm9.594 0V13.8h1.568l3.744 7.12 3.744-7.12h1.504V25h-1.504v-8.48l-3.216 6.08h-1.12l-3.216-6.08V25h-1.504Zm16.485.16a4.514 4.514 0 0 1-2.016-.464c-.618-.31-1.12-.784-1.504-1.424-.373-.64-.56-1.45-.56-2.432v-.32c0-.939.182-1.712.544-2.32.363-.619.843-1.077 1.44-1.376a4.151 4.151 0 0 1 1.936-.464c1.248 0 2.214.341 2.896 1.024.683.683 1.024 1.648 1.024 2.896v.896h-6.432c0 .661.134 1.19.4 1.584.278.395.619.683 1.024.864.416.17.832.256 1.248.256.64 0 1.131-.107 1.472-.32.352-.213.603-.507.752-.88h1.376c-.17.81-.592 1.43-1.264 1.856-.661.416-1.44.624-2.336.624Zm-.08-7.52c-.437 0-.853.085-1.248.256a2.22 2.22 0 0 0-.976.768c-.245.352-.368.805-.368 1.36h5.104c-.01-.587-.133-1.05-.368-1.392a1.86 1.86 0 0 0-.896-.752 3.135 3.135 0 0 0-1.248-.24Zm5.362 7.36v-8.48h1.312v1.6c.128-.341.304-.64.528-.896.224-.267.496-.475.816-.624.33-.16.698-.24 1.104-.24.213 0 .384.01.512.032.138.021.261.048.368.08v1.312a2.024 2.024 0 0 0-.416-.112 3.532 3.532 0 0 0-.544-.032c-.427 0-.811.101-1.152.304a2.219 2.219 0 0 0-.816.848c-.203.352-.304.768-.304 1.248V25h-1.408Zm5.754 0V13.8h1.408v6.624l3.904-3.904h1.728l-3.52 3.504 3.84 4.976h-1.792l-3.056-4-1.104 1.04V25h-1.408Zm11.774.16a4.514 4.514 0 0 1-2.016-.464c-.618-.31-1.12-.784-1.504-1.424-.373-.64-.56-1.45-.56-2.432v-.32c0-.939.182-1.712.544-2.32.363-.619.843-1.077 1.44-1.376a4.151 4.151 0 0 1 1.936-.464c1.248 0 2.214.341 2.896 1.024.683.683 1.024 1.648 1.024 2.896v.896h-6.432c0 .661.134 1.19.4 1.584.278.395.619.683 1.024.864.416.17.832.256 1.248.256.64 0 1.131-.107 1.472-.32.352-.213.603-.507.752-.88h1.376c-.17.81-.592 1.43-1.264 1.856-.661.416-1.44.624-2.336.624Zm-.08-7.52c-.437 0-.853.085-1.248.256a2.22 2.22 0 0 0-.976.768c-.245.352-.368.805-.368 1.36h5.104c-.01-.587-.133-1.05-.368-1.392a1.86 1.86 0 0 0-.896-.752 3.135 3.135 0 0 0-1.248-.24Zm4.722 7.36v-1.168l5.024-6.064h-4.864V16.52h6.56v1.168l-5.024 6.064h5.184V25h-6.88Zm8.229 2.4.64-2.4v-1.76h1.76V25l-1.6 2.4h-.8Zm8.556-2.4V13.8h1.568l3.744 7.12 3.744-7.12h1.504V25h-1.504v-8.48l-3.216 6.08h-1.12l-3.216-6.08V25h-1.504Zm16.486.16a4.508 4.508 0 0 1-2.016-.464c-.619-.31-1.12-.784-1.504-1.424-.373-.64-.56-1.45-.56-2.432v-.32c0-.939.181-1.712.544-2.32.363-.619.843-1.077 1.44-1.376a4.149 4.149 0 0 1 1.936-.464c1.248 0 2.213.341 2.896 1.024.683.683 1.024 1.648 1.024 2.896v.896h-6.432c0 .661.133 1.19.4 1.584a2.48 2.48 0 0 0 1.024.864c.416.17.832.256 1.248.256.64 0 1.131-.107 1.472-.32.352-.213.603-.507.752-.88h1.376c-.171.81-.592 1.43-1.264 1.856-.661.416-1.44.624-2.336.624Zm-.08-7.52c-.437 0-.853.085-1.248.256-.395.16-.72.416-.976.768-.245.352-.368.805-.368 1.36h5.104c-.011-.587-.133-1.05-.368-1.392a1.864 1.864 0 0 0-.896-.752 3.135 3.135 0 0 0-1.248-.24Zm5.361 7.36V13.8h1.408v4.24c.15-.299.352-.576.608-.832s.566-.459.928-.608c.374-.16.795-.24 1.264-.24 1.067 0 1.856.288 2.368.864.523.565.784 1.397.784 2.496V25h-1.408v-4.96c0-.79-.165-1.387-.496-1.792-.33-.405-.885-.608-1.664-.608-.554 0-1.008.117-1.36.352a2.184 2.184 0 0 0-.784.896c-.16.363-.24.747-.24 1.152V25h-1.408Zm9.364 0v-8.48h1.312v1.6c.181-.523.491-.944.928-1.264a2.5 2.5 0 0 1 1.52-.496c.736 0 1.301.16 1.696.48.395.31.667.71.816 1.2.277-.523.629-.933 1.056-1.232.437-.299.96-.448 1.568-.448.875 0 1.557.267 2.048.8.491.523.736 1.35.736 2.48V25h-1.408v-5.04c0-.843-.149-1.44-.448-1.792-.288-.352-.731-.528-1.328-.528-.341 0-.661.096-.96.288a1.948 1.948 0 0 0-.72.8c-.181.341-.272.752-.272 1.232V25h-1.408v-5.04c0-.843-.149-1.44-.448-1.792-.299-.352-.741-.528-1.328-.528-.341 0-.661.096-.96.288a1.948 1.948 0 0 0-.72.8c-.181.341-.272.752-.272 1.232V25h-1.408Zm17.196.16a4.514 4.514 0 0 1-2.016-.464c-.618-.31-1.12-.784-1.504-1.424-.373-.64-.56-1.45-.56-2.432v-.32c0-.939.182-1.712.544-2.32.363-.619.843-1.077 1.44-1.376a4.151 4.151 0 0 1 1.936-.464c1.248 0 2.214.341 2.896 1.024.683.683 1.024 1.648 1.024 2.896v.896h-6.432c0 .661.134 1.19.4 1.584.278.395.619.683 1.024.864.416.17.832.256 1.248.256.64 0 1.131-.107 1.472-.32.352-.213.603-.507.752-.88h1.376c-.17.81-.592 1.43-1.264 1.856-.661.416-1.44.624-2.336.624Zm-.08-7.52c-.437 0-.853.085-1.248.256a2.22 2.22 0 0 0-.976.768c-.245.352-.368.805-.368 1.36h5.104c-.01-.587-.133-1.05-.368-1.392a1.86 1.86 0 0 0-.896-.752 3.135 3.135 0 0 0-1.248-.24Zm8.482 7.44c-.598 0-1.088-.09-1.472-.272a1.76 1.76 0 0 1-.832-.816c-.171-.373-.256-.837-.256-1.392v-4.832h-1.28V16.52h1.28V14.6h1.408v1.92h2.272v1.248h-2.272v4.672c0 .48.101.827.304 1.04.202.213.592.32 1.168.32.32 0 .64-.016.96-.048V25c-.203.021-.406.037-.608.048a6.473 6.473 0 0 1-.672.032Zm5.366-.08 4.288-11.2h1.504l4.288 11.2h-1.632l-1.072-2.784h-4.736L231.167 25h-1.568Zm3.136-4.096h3.744l-1.872-5.184-1.872 5.184ZM240.798 25V13.8h1.408v6.624l3.904-3.904h1.728l-3.52 3.504 3.84 4.976h-1.792l-3.056-4-1.104 1.04V25h-1.408Zm8.726 0v-8.48h1.408V25h-1.408Zm.704-9.6a.934.934 0 0 1-.688-.272.934.934 0 0 1-.272-.688c0-.277.091-.507.272-.688a.934.934 0 0 1 .688-.272.931.931 0 0 1 .96.96.93.93 0 0 1-.96.96Zm3.418 9.6v-7.232h-1.2V16.52h1.2v-.16c0-.597.09-1.088.272-1.472a1.8 1.8 0 0 1 .832-.88c.384-.192.869-.288 1.456-.288.16 0 .341.005.544.016.202 0 .421.01.656.032v1.28a4.018 4.018 0 0 0-.528-.032 8.733 8.733 0 0 0-.512-.016c-.491 0-.832.101-1.024.304-.192.192-.288.544-.288 1.056v.16h2.192v1.248h-2.192V25h-1.408Zm12.803.16a4.722 4.722 0 0 1-2.32-.592c-.714-.395-1.296-1.008-1.744-1.84-.437-.843-.656-1.925-.656-3.248v-.32c0-.96.128-1.787.384-2.48.256-.693.603-1.264 1.04-1.712a4.12 4.12 0 0 1 1.504-.992 4.905 4.905 0 0 1 1.792-.336c.608 0 1.163.08 1.664.24.512.16.96.39 1.344.688.384.299.694.667.928 1.104.246.437.4.933.464 1.488h-1.6c-.149-.725-.464-1.27-.944-1.632-.48-.363-1.098-.544-1.856-.544-.522 0-1.024.133-1.504.4s-.869.71-1.168 1.328c-.298.608-.448 1.424-.448 2.448v.32c0 .81.091 1.493.272 2.048.192.555.443 1.003.752 1.344.31.33.646.57 1.008.72.374.15.736.224 1.088.224.832 0 1.483-.203 1.952-.608.47-.405.752-.928.848-1.568h1.6c-.085.619-.256 1.152-.512 1.6a3.484 3.484 0 0 1-.976 1.104 4.117 4.117 0 0 1-1.328.624 6.25 6.25 0 0 1-1.584.192Zm8.955 0c-.693 0-1.306-.16-1.84-.48-.533-.32-.949-.8-1.248-1.44-.288-.64-.432-1.44-.432-2.4v-.32c0-.896.15-1.653.448-2.272.31-.619.726-1.088 1.248-1.408.534-.32 1.142-.48 1.824-.48.683 0 1.275.15 1.776.448.512.299.891.71 1.136 1.232V13.8h1.408V25h-1.312v-1.6c-.213.523-.586.95-1.12 1.28-.533.32-1.162.48-1.888.48Zm.32-1.248c.512 0 .96-.107 1.344-.32.395-.224.699-.528.912-.912.224-.395.336-.848.336-1.36v-1.28c0-.459-.112-.87-.336-1.232a2.262 2.262 0 0 0-.912-.88c-.384-.213-.832-.32-1.344-.32-.682 0-1.258.256-1.728.768-.469.501-.704 1.216-.704 2.144v.32c0 1.003.235 1.765.704 2.288.47.523 1.046.784 1.728.784ZM285.648 25V13.8h1.472l6.016 8.72V13.8h1.472V25h-1.472l-6.016-8.72V25h-1.472Zm14.876.16a4.514 4.514 0 0 1-2.016-.464c-.618-.32-1.12-.8-1.504-1.44-.373-.64-.56-1.445-.56-2.416v-.32c0-.917.187-1.685.56-2.304a3.698 3.698 0 0 1 1.504-1.392 4.514 4.514 0 0 1 2.016-.464c.726 0 1.398.155 2.016.464.619.31 1.115.773 1.488 1.392.384.619.576 1.387.576 2.304v.32c0 .97-.192 1.776-.576 2.416a3.638 3.638 0 0 1-1.488 1.44c-.618.31-1.29.464-2.016.464Zm0-1.28c.438 0 .854-.096 1.248-.288.406-.203.736-.528.992-.976.267-.448.4-1.04.4-1.776v-.32c0-.683-.133-1.232-.4-1.648-.256-.427-.586-.736-.992-.928a2.691 2.691 0 0 0-1.248-.304 2.76 2.76 0 0 0-1.248.304c-.405.192-.741.501-1.008.928-.256.416-.384.965-.384 1.648v.32c0 .736.128 1.328.384 1.776.267.448.603.773 1.008.976a2.89 2.89 0 0 0 1.248.288Zm6.714 1.28c-.203 0-.389-.053-.56-.16a1.149 1.149 0 0 1-.416-.4 1.123 1.123 0 0 1-.144-.56c0-.32.107-.587.32-.8a1.12 1.12 0 0 1 .8-.32c.309 0 .571.107.784.32.224.213.336.48.336.8 0 .203-.053.39-.16.56-.096.17-.229.304-.4.4a.986.986 0 0 1-.56.16Zm0-6.56c-.203 0-.389-.048-.56-.144a1.292 1.292 0 0 1-.416-.416 1.123 1.123 0 0 1-.144-.56c0-.32.107-.587.32-.8a1.12 1.12 0 0 1 .8-.32c.309 0 .571.107.784.32.224.213.336.48.336.8 0 .203-.053.39-.16.56-.096.17-.229.31-.4.416-.16.096-.347.144-.56.144Zm2.797 6.4v-1.312h2.672v-8.24l-2.672 1.904V15.72l2.704-1.92h1.504v9.888h2.192V25h-6.4Zm7.046 0v-1.232l4.48-3.888c.458-.384.81-.72 1.056-1.008.245-.299.41-.581.496-.848.096-.267.144-.555.144-.864 0-.63-.187-1.147-.56-1.552-.374-.416-.886-.624-1.536-.624-.779 0-1.376.213-1.792.64-.416.416-.624 1.008-.624 1.776h-1.504c0-.736.16-1.387.48-1.952a3.5 3.5 0 0 1 1.376-1.328c.597-.32 1.285-.48 2.064-.48.757 0 1.402.155 1.936.464.544.299.954.715 1.232 1.248.288.523.432 1.125.432 1.808 0 .512-.102.981-.304 1.408-.203.416-.486.81-.848 1.184-.352.373-.763.763-1.232 1.168l-3.344 2.768h5.888V25h-7.84Zm9.041 2.4.64-2.4v-1.76h1.76V25l-1.6 2.4h-.8Zm11.517-2.24c-.811 0-1.504-.139-2.08-.416-.566-.288-1.003-.672-1.312-1.152a3.075 3.075 0 0 1-.448-1.632h1.504c0 .544.186.992.56 1.344.373.341.965.512 1.776.512.81 0 1.402-.176 1.776-.528.373-.363.56-.832.56-1.408 0-.597-.192-1.077-.576-1.44-.374-.373-.96-.56-1.76-.56h-1.2V18.6h1.2c.768 0 1.322-.16 1.664-.48.341-.33.512-.784.512-1.36 0-.555-.166-.987-.496-1.296-.331-.32-.891-.48-1.68-.48-.758 0-1.312.165-1.664.496-.342.32-.512.72-.512 1.2h-1.504c0-.565.144-1.077.432-1.536.288-.459.704-.821 1.248-1.088.554-.277 1.221-.416 2-.416.789 0 1.456.139 2 .416.554.267.97.624 1.248 1.072.288.448.432.939.432 1.472 0 .64-.171 1.184-.512 1.632-.331.437-.8.747-1.408.928.64.203 1.146.533 1.52.992.373.459.56 1.088.56 1.888 0 .565-.15 1.088-.448 1.568-.299.47-.736.848-1.312 1.136-.566.277-1.259.416-2.08.416Zm10.335-.16v-2.704h-5.696v-1.152l5.536-7.344h1.664v7.184h1.44v1.312h-1.44V25h-1.504Zm-4.096-4.016h4.096V15.56l-4.096 5.424ZM352.124 25v-1.312h2.672v-8.24l-2.672 1.904V15.72l2.704-1.92h1.504v9.888h2.192V25h-6.4Zm11.285.16c-.885 0-1.626-.133-2.224-.4-.586-.277-1.029-.65-1.328-1.12a2.974 2.974 0 0 1-.448-1.6c0-.64.203-1.21.608-1.712.406-.512 1.003-.875 1.792-1.088a3.347 3.347 0 0 1-1.472-.976c-.405-.459-.608-1.013-.608-1.664 0-.555.139-1.056.416-1.504.288-.448.704-.8 1.248-1.056.555-.267 1.227-.4 2.016-.4.8 0 1.472.133 2.016.4.544.256.955.608 1.232 1.056.288.448.432.95.432 1.504 0 .64-.202 1.184-.608 1.632a3.665 3.665 0 0 1-1.472 1.008c.8.267 1.398.619 1.792 1.056.406.437.608 1.019.608 1.744 0 .587-.149 1.12-.448 1.6-.298.47-.746.843-1.344 1.12-.586.267-1.322.4-2.208.4Zm0-1.344c.619 0 1.11-.085 1.472-.256.363-.17.624-.395.784-.672.16-.288.24-.603.24-.944 0-.597-.234-1.083-.704-1.456-.469-.373-1.066-.603-1.792-.688-.725.085-1.322.31-1.792.672-.469.363-.704.853-.704 1.472 0 .341.08.656.24.944.16.277.422.501.784.672.363.17.854.256 1.472.256Zm0-5.136c.64-.085 1.163-.288 1.568-.608.406-.33.608-.795.608-1.392 0-.544-.181-.96-.544-1.248-.352-.299-.896-.448-1.632-.448-.746 0-1.296.15-1.648.448-.352.288-.528.704-.528 1.248 0 .597.203 1.061.608 1.392.406.32.928.523 1.568.608Zm9.366 6.48a4.31 4.31 0 0 1-1.536-.272 3.278 3.278 0 0 1-1.28-.944c-.373-.437-.667-1.024-.88-1.76-.203-.747-.304-1.675-.304-2.784v-.32c0-1.035.101-1.899.304-2.592.213-.704.507-1.264.88-1.68.373-.416.8-.715 1.28-.896a4.31 4.31 0 0 1 1.536-.272c.544 0 1.056.09 1.536.272.48.181.907.48 1.28.896.373.416.661.976.864 1.68.213.693.32 1.557.32 2.592v.32c0 1.11-.107 2.037-.32 2.784-.203.736-.491 1.323-.864 1.76a3.28 3.28 0 0 1-1.28.944 4.31 4.31 0 0 1-1.536.272Zm0-1.312c.341 0 .661-.059.96-.176.299-.128.56-.352.784-.672.235-.33.416-.784.544-1.36.139-.587.208-1.333.208-2.24v-.32c0-1.11-.117-1.963-.352-2.56-.224-.597-.528-1.008-.912-1.232a2.349 2.349 0 0 0-1.232-.336c-.448 0-.864.112-1.248.336-.373.224-.677.635-.912 1.232-.224.597-.336 1.45-.336 2.56v.32c0 .907.064 1.653.192 2.24.139.576.32 1.03.544 1.36.235.32.501.544.8.672.309.117.629.176.96.176Z"/>
  <path stroke="#EBEBEB" d="M.5.5h389v37H.5z"/>
  <path fill="#fff" fill-rule="evenodd" d="M184.971 55.89a1 1 0 0 1 .807-.41h18.444a1 1 0 0 1 .807.41l4.611 6.305c.125.172.193.378.193.59v22.071a4.195 4.195 0 0 1-1.185 2.928 4.035 4.035 0 0 1-2.889 1.225h-21.518a4.032 4.032 0 0 1-2.889-1.225 4.19 4.19 0 0 1-1.185-2.928V62.785c0-.212.068-.418.193-.59l4.611-6.306Zm22.862 28.966V64.334h-25.666v20.522c0 .58.225 1.13.617 1.532.391.4.915.621 1.457.621h21.518c.541 0 1.066-.22 1.457-.621.392-.402.617-.953.617-1.532Zm-.57-22.522h-24.527l3.55-4.855h17.428l3.549 4.855Zm-18.179 6.483a1 1 0 0 0-2 0c0 2.086.836 4.085 2.321 5.557A7.95 7.95 0 0 0 195 76.671a7.946 7.946 0 0 0 5.594-2.297 7.822 7.822 0 0 0 2.322-5.557 1 1 0 1 0-2 0c0 1.55-.621 3.038-1.729 4.137A5.95 5.95 0 0 1 195 74.672a5.95 5.95 0 0 1-4.187-1.718 5.825 5.825 0 0 1-1.729-4.137Z" clip-rule="evenodd"/>
</svg>
