<svg width="155" height="62" viewBox="0 0 155 62" fill="none" xmlns="http://www.w3.org/2000/svg">
<g clip-path="url(#clip0_2_413)">
<path fill-rule="evenodd" clip-rule="evenodd" d="M33.3272 36.3227C33.1464 32.1005 32.062 27.5189 30.345 22.8475C30.0739 23.7458 29.8028 24.734 29.5317 25.812C28.628 29.1359 27.5436 32.9988 25.1036 36.9516C23.8384 39.0178 22.754 41.1738 21.9407 43.24C24.8325 42.8807 26.5495 41.3535 28.2665 39.8263C29.622 38.4788 31.1583 37.1312 33.3272 36.3227ZM19.2296 54.5593C29.4413 53.2117 33.4175 46.4741 33.3272 37.6703C31.5198 38.3889 30.2546 39.5568 28.9895 40.6348C27.0014 42.4315 25.0132 44.2282 21.3081 44.4079C21.037 45.2164 20.7659 46.0249 20.5852 46.8334C19.7718 49.798 19.4104 52.4032 19.2296 54.5593ZM16.7897 61.7461C16.4282 61.1172 16.1571 60.4884 15.886 59.7697C15.3438 58.2425 14.8919 56.4458 14.8919 55.0084L17.4223 54.9186C17.5126 56.1763 17.7837 57.7933 18.3259 59.1409C18.7778 60.3087 19.32 61.3867 19.8622 61.8359H16.7897V61.7461ZM-0.741867 38.2093C-0.651498 46.3843 3.14399 52.7626 12.3616 54.3796C10.5542 51.415 9.37944 48.0911 8.47575 44.5876C8.29501 44.5876 8.20464 44.5876 8.0239 44.5876C6.48763 44.4977 4.68026 43.779 3.05362 42.4315C1.69809 41.4433 0.342559 40.006 -0.741867 38.2093ZM1.42698 25.4527C0.342556 28.9562 -0.380393 32.4598 -0.6515 35.6939C-0.561131 35.9634 -0.380392 36.2329 -0.290023 36.4126C0.884771 38.5686 2.33067 40.2755 3.77657 41.4433C5.22247 42.6112 6.75874 43.24 8.11427 43.3299H8.20464C7.93354 42.4315 7.7528 41.5332 7.57206 40.6348C6.12616 35.065 4.861 29.4953 1.42698 25.4527ZM8.56612 9.91119C6.03579 14.0436 3.86694 18.5354 2.2403 22.9373C4.13805 24.8238 5.49358 27.0697 6.48764 29.4953C8.38538 25.9917 9.10833 21.6796 9.10833 17.5472C9.1987 14.942 9.01796 12.3367 8.56612 9.91119ZM15.163 0.837837C13.1749 3.17355 11.2772 5.68894 9.56017 8.38399C10.1024 11.1689 10.4639 14.4029 10.4639 17.637C10.3735 22.3084 9.4698 27.1595 7.12022 31.1123C8.20464 33.987 8.92759 37.0414 9.74091 40.1856C10.9157 45.0367 12.0905 49.8878 14.7112 53.8406C13.0846 44.0486 13.8979 33.7175 14.7112 23.656C15.2534 15.5708 15.886 7.75515 15.163 0.837837ZM24.0192 9.91119C22.0311 6.67712 19.7718 3.62273 17.4223 0.837837C18.0548 7.93482 17.5126 15.6606 16.88 23.656C16.6089 27.0697 16.3378 30.5733 16.1571 34.0769C20.7659 30.4834 21.5792 24.5543 22.2118 18.8049C22.6637 15.6606 23.0251 12.6062 24.0192 9.91119ZM29.0798 19.7032C27.905 16.8285 26.4591 14.0436 24.9229 11.3486C24.1999 13.6843 23.9288 16.2895 23.5673 18.9845C22.754 25.3628 21.9407 31.9208 16.1571 35.6939C15.886 41.8925 15.9764 48.0013 17.0608 53.8406C17.2415 51.6845 17.6934 48.9895 18.5067 46.2046C19.5007 42.8807 20.9466 39.1975 23.2059 35.6939C25.4651 32.0106 26.4591 28.3274 27.3628 25.1832C27.8147 23.117 28.3569 21.2304 29.0798 19.7032Z" fill="#7A9049"/>
<path d="M75.2947 16.0044H78.9998C79.2709 16.0044 79.4517 16.0044 79.6324 15.9145C79.8132 15.8247 79.9939 15.8247 80.0843 15.645C80.1746 15.5552 80.265 15.4654 80.3554 15.2857C80.4457 15.106 80.4457 14.9264 80.4457 14.7467C80.4457 14.567 80.4457 14.3873 80.3554 14.2077C80.265 14.028 80.1746 13.9382 80.0843 13.8483C79.9939 13.7585 79.8132 13.6687 79.6324 13.5788C79.4517 13.489 79.2709 13.489 78.9998 13.489H75.2044V16.0044H75.2947ZM73.7585 21.125V12.0516H79.0902C79.5421 12.0516 79.9939 12.1415 80.3554 12.2313C80.7168 12.3211 81.0783 12.5008 81.3494 12.7703C81.6205 13.0398 81.8013 13.3093 81.982 13.6687C82.0724 14.028 82.1628 14.3873 82.1628 14.7467C82.1628 15.106 82.0724 15.3755 81.982 15.7349C81.8916 16.0044 81.7109 16.2739 81.5302 16.5434C81.3494 16.8129 81.0783 16.9926 80.8072 17.1722C80.6265 17.2621 80.4457 17.3519 80.1746 17.4417L82.4339 21.3945H80.7169L78.4576 17.5316H75.3851V21.3945H73.8488V21.125H73.7585ZM90.7478 17.4417H93.9107L92.2841 14.2077L90.7478 17.4417ZM87.3138 21.0352L91.7418 12.0516H92.9166L97.6158 21.3945H95.8988L94.724 18.9689H90.0248L88.85 21.3945H87.133L87.3138 21.0352ZM102.948 21.125V12.0516H104.303L107.827 17.3519L111.352 12.0516H112.707V21.3945H111.171V15.0162L107.827 19.9571L104.484 15.0162V21.3945H102.948V21.125ZM119.124 19.6876L119.937 18.5198L120.118 18.6994C120.389 18.9689 120.75 19.1486 121.021 19.3283C121.383 19.508 121.654 19.6876 122.015 19.7775C122.377 19.8673 122.648 19.9571 123.009 20.047C123.371 20.1368 123.642 20.1368 124.004 20.1368C124.365 20.1368 124.726 20.1368 125.088 20.047C125.359 19.9571 125.63 19.8673 125.901 19.6876C126.172 19.508 126.263 19.3283 126.443 19.1486C126.534 18.9689 126.624 18.7893 126.624 18.5198C126.624 18.1604 126.443 17.8909 126.172 17.6214C125.992 17.5316 125.811 17.4417 125.54 17.3519C125.269 17.2621 124.998 17.2621 124.726 17.1722C124.636 17.1722 124.546 17.1722 124.455 17.1722H124.094C123.371 17.0824 122.738 17.0824 122.196 16.9926C121.654 16.9027 121.292 16.8129 121.021 16.6332C120.841 16.5434 120.569 16.3637 120.389 16.2739C120.208 16.0942 120.027 16.0044 119.937 15.8247C119.847 15.645 119.756 15.4654 119.666 15.2857C119.575 15.106 119.575 14.8365 119.575 14.6569C119.575 14.2975 119.666 13.9382 119.847 13.5788C120.027 13.2195 120.298 12.95 120.66 12.6805C121.021 12.411 121.383 12.2313 121.835 12.1415C122.286 12.0516 122.738 11.9618 123.281 11.9618C123.642 11.9618 124.004 11.9618 124.455 12.0516C124.817 12.1415 125.178 12.2313 125.63 12.3211C125.992 12.411 126.353 12.5906 126.715 12.7703C127.076 12.95 127.438 13.1297 127.709 13.3992L127.889 13.489L126.986 14.7467L126.805 14.567C126.534 14.3874 126.263 14.2077 125.992 14.028C125.721 13.8483 125.449 13.7585 125.178 13.6687C124.907 13.5788 124.546 13.489 124.275 13.3992C124.003 13.3093 123.642 13.3093 123.371 13.3093C123.009 13.3093 122.738 13.3093 122.467 13.3992C122.196 13.489 122.015 13.5788 121.744 13.6687C121.564 13.7585 121.383 13.9382 121.292 14.028C121.202 14.1178 121.202 14.2975 121.202 14.4772C121.202 14.567 121.202 14.567 121.202 14.6569C121.202 14.7467 121.202 14.7467 121.292 14.8365C121.292 14.9264 121.383 14.9264 121.383 15.0162C121.383 15.106 121.473 15.106 121.564 15.1959C121.744 15.2857 122.015 15.3755 122.377 15.4654C122.738 15.5552 123.281 15.645 123.823 15.645C124.094 15.645 124.365 15.645 124.546 15.7349C124.726 15.7349 124.998 15.7349 125.088 15.8247C125.54 15.9146 125.992 16.0044 126.353 16.0942C126.715 16.2739 127.076 16.4536 127.347 16.7231C127.618 16.9926 127.889 17.2621 127.98 17.6214C128.16 17.9808 128.16 18.3401 128.16 18.6994C128.16 19.1486 128.07 19.5978 127.889 19.9571C127.709 20.3165 127.438 20.6758 126.986 20.9453C126.624 21.2148 126.172 21.4843 125.63 21.5742C125.088 21.7538 124.546 21.7538 124.004 21.7538C123.552 21.7538 123.1 21.7538 122.648 21.664C122.196 21.5742 121.835 21.4843 121.383 21.3945C121.021 21.3047 120.569 21.125 120.208 20.8555C119.847 20.6758 119.485 20.4063 119.124 20.1368L118.943 20.047L119.124 19.6876Z" fill="white"/>
<path fill-rule="evenodd" clip-rule="evenodd" d="M143.523 43.4041V29.839H144.427L153.283 39.9904V29.839H155V43.4041H154.096L145.24 33.3426V43.4041H143.523Z" fill="white"/>
<path d="M125.72 43.4041V29.839H136.474V31.456H127.437V35.4088H132.86V36.936H127.437V41.8769H137.017V43.4041H125.72Z" fill="white"/>
<path d="M112.075 29.839C114.244 29.839 115.961 30.4678 117.226 31.7255C118.581 32.9832 119.214 34.6003 119.214 36.6665C119.214 38.7327 118.581 40.3497 117.316 41.6074C116.051 42.8651 114.244 43.4041 112.075 43.4041H106.201V29.839H112.075ZM112.075 31.456H107.918V41.8769H112.075C113.792 41.8769 115.057 41.4277 116.051 40.4396C117.045 39.5412 117.497 38.1937 117.497 36.6665C117.497 35.0494 117.045 33.7917 116.051 32.8934C115.057 31.9052 113.701 31.456 112.075 31.456Z" fill="white"/>
<path d="M87.4041 43.4041V29.839H95.2662C96.6218 29.839 97.6158 30.1983 98.4291 30.8272C99.1521 31.456 99.6039 32.4442 99.6039 33.6121C99.6039 34.6003 99.3328 35.4088 98.7002 36.1275C98.0677 36.8461 97.3447 37.2953 96.3507 37.475L99.7847 43.4041H97.8869L94.4529 37.475H89.1212V43.4041H87.4041ZM89.1212 35.9478H95.1759C95.9892 35.9478 96.7121 35.7681 97.164 35.4088C97.6158 35.0494 97.7966 34.5104 97.7966 33.7917C97.7966 33.0731 97.6158 32.5341 97.164 32.1747C96.7121 31.8154 96.0795 31.5459 95.2662 31.5459H89.1212V35.9478Z" fill="white"/>
<path d="M65.9867 43.4041L72.674 29.839H74.1199L80.8976 43.4041H79.0902L77.2828 39.7209H69.7822L67.9748 43.4041H65.9867ZM70.4148 38.1937H76.3791L73.397 32.1747L70.4148 38.1937Z" fill="white"/>
<path d="M58.4861 39.7209V37.7445H54.781V36.2173H60.2031V40.2599C59.5705 41.4277 58.6669 42.2363 57.5824 42.8651C56.498 43.4939 55.3232 43.7635 53.9677 43.7635C51.8892 43.7635 50.2626 43.1346 48.907 41.7871C47.5515 40.4396 46.9189 38.7327 46.9189 36.6665C46.9189 34.6003 47.5515 32.8934 48.907 31.5459C50.2626 30.1983 51.8892 29.5695 53.9677 29.5695C55.2328 29.5695 56.4076 29.839 57.4017 30.378C58.3958 30.917 59.2994 31.7255 59.932 32.7137L58.4861 33.7019C58.0343 32.8934 57.4017 32.2645 56.5884 31.8154C55.7751 31.3662 54.8714 31.0967 53.8773 31.0967C52.341 31.0967 51.0759 31.6357 50.0818 32.6239C49.0878 33.7019 48.5456 34.9596 48.5456 36.5766C48.5456 38.1937 49.0878 39.4514 50.0818 40.5294C51.0759 41.6074 52.341 42.0566 53.8773 42.0566C54.8714 42.0566 55.6847 41.8769 56.4076 41.4277C57.3113 41.1582 57.9439 40.5294 58.4861 39.7209Z" fill="white"/>
<path d="M77.2828 53.0165C77.2828 53.286 77.1925 53.5555 77.1021 53.7351C77.0117 53.9148 76.831 54.1843 76.7406 54.364C76.5599 54.5437 76.3792 54.7233 76.1984 54.8132C76.0177 54.9928 75.7466 55.0827 75.5658 55.1725C75.8369 55.1725 76.108 55.2624 76.3792 55.3522C76.6503 55.442 76.831 55.6217 76.9214 55.8014C77.1021 55.981 77.1925 56.1607 77.1925 56.4302C77.2828 56.6099 77.2828 56.8794 77.2828 57.1489C77.2828 57.5981 77.1021 58.0472 76.831 58.4066C76.5599 58.7659 76.2888 59.0354 75.9273 59.3049C75.5658 59.5744 75.114 59.7541 74.6621 59.8439C74.2103 59.9338 73.7585 60.0236 73.3066 60.0236C73.1259 60.0236 72.9451 60.0236 72.7644 60.0236C72.5837 60.0236 72.4029 59.9338 72.2222 59.9338C72.0415 59.8439 71.9511 59.8439 71.8607 59.6643C71.7703 59.5744 71.68 59.4846 71.68 59.3049C71.68 59.2151 71.68 59.1253 71.7703 59.0354C71.8607 58.9456 71.9511 58.8558 71.9511 58.7659C72.0415 58.9456 72.2222 59.0354 72.4933 59.1253C72.674 59.2151 72.9451 59.3049 73.1259 59.3049C73.5777 59.3049 73.9392 59.2151 74.3007 59.1253C74.5718 59.0354 74.8429 58.8558 75.0236 58.6761C75.2044 58.4964 75.3851 58.3167 75.4755 58.0472C75.5658 57.8676 75.6562 57.5981 75.6562 57.3286C75.6562 56.8794 75.4755 56.52 75.2044 56.2505C74.8429 55.981 74.3007 55.8912 73.6681 55.8912C73.5777 55.8912 73.4874 55.8912 73.397 55.8912H73.2162C73.2162 55.8014 73.1259 55.7115 73.1259 55.6217C73.1259 55.5319 73.0355 55.442 73.0355 55.3522V55.1725C73.0355 55.0827 73.0355 55.0827 73.0355 54.9928C73.0355 54.903 73.0355 54.903 73.1259 54.8132C73.1259 54.8132 73.2162 54.7233 73.2162 54.8132C73.3066 54.8132 73.3066 54.8132 73.397 54.903C73.4874 54.9928 73.4874 54.903 73.5777 54.9928C73.6681 54.9928 73.6681 54.9928 73.7585 54.9928C73.8488 54.9928 73.8488 54.9928 73.9392 54.9928C74.2103 54.9928 74.4814 54.903 74.7525 54.8132C75.0236 54.7233 75.2044 54.5437 75.2947 54.4538C75.4755 54.2742 75.5658 54.0945 75.6562 53.9148C75.7466 53.7352 75.7466 53.4656 75.8369 53.286C75.8369 52.9266 75.8369 52.6571 75.6562 52.4775C75.4755 52.2978 75.2947 52.1181 75.114 52.0283C74.8429 51.9384 74.5718 51.8486 74.3007 51.8486C74.0296 51.8486 73.7585 51.8486 73.4874 51.8486C73.5777 51.9384 73.5777 52.0283 73.6681 52.1181C73.6681 52.208 73.7585 52.2978 73.7585 52.3876C73.7585 52.4775 73.7585 52.5673 73.7585 52.6571C73.7585 52.747 73.6681 52.8368 73.6681 53.0165C73.397 53.4656 73.2162 54.0047 72.9451 54.6335C72.674 55.1725 72.4029 55.8014 72.2222 56.4302C71.9511 57.0591 71.7703 57.5981 71.5896 58.2269C71.4089 58.8558 71.3185 59.3948 71.3185 59.9338C71.3185 60.0236 71.3185 60.0236 71.3185 60.1134C71.3185 60.2033 71.2281 60.2033 71.1378 60.2931C71.1378 60.2931 71.0474 60.2931 70.957 60.2931C70.8667 60.2931 70.8667 60.2033 70.7763 60.2033C70.6859 60.1135 70.5956 60.0236 70.5052 59.9338C70.4148 59.8439 70.3244 59.6643 70.2341 59.5744C70.1437 59.3948 70.0533 59.2151 70.1437 58.9456C70.1437 58.6761 70.2341 58.4964 70.2341 58.3167C70.3244 57.9574 70.4148 57.5082 70.5956 57.0591C70.7763 56.6099 71.0474 56.0709 71.2281 55.442C71.4992 54.903 71.7703 54.2742 72.0415 53.7351C72.3126 53.1063 72.5837 52.5673 72.8548 52.0283C72.5837 52.1181 72.2222 52.208 71.8607 52.2978C71.4992 52.3876 71.1378 52.5673 70.8667 52.8368C70.5956 53.0165 70.3244 53.286 70.0533 53.5555C69.8726 53.825 69.6919 54.1843 69.6919 54.4538C69.6919 54.7233 69.6015 54.7233 69.4208 54.5437C69.3304 54.4538 69.24 54.2742 69.1496 54.0945C69.0593 53.9148 69.0593 53.7352 69.0593 53.5555C69.0593 53.1063 69.24 52.747 69.6015 52.4775C69.8726 52.208 70.3244 51.9384 70.7763 51.7588C71.2281 51.5791 71.7703 51.3994 72.3126 51.3096C72.8548 51.2198 73.4874 51.1299 74.0296 51.1299C74.4814 51.1299 74.9333 51.1299 75.3851 51.2198C75.7466 51.3096 76.108 51.3994 76.3792 51.5791C76.6503 51.7588 76.831 52.0283 77.0117 52.2978C77.2828 52.3876 77.2828 52.6571 77.2828 53.0165Z" fill="white"/>
<path d="M85.3257 57.1489C85.3257 57.3286 85.3257 57.5082 85.2353 57.5981C85.2353 57.6879 85.1449 57.7777 85.1449 57.7777C84.9642 58.0472 84.6931 58.3167 84.5123 58.5862C84.3316 58.8558 84.0605 59.0354 83.8798 59.2151C83.699 59.3948 83.4279 59.4846 83.2472 59.5744C83.0664 59.6643 82.7953 59.7541 82.6146 59.7541C82.3435 59.7541 82.0724 59.6643 81.8916 59.4846C81.7109 59.3049 81.6205 58.9456 81.6205 58.4066C81.2591 58.9456 80.8072 59.3049 80.4457 59.4846C79.9939 59.6643 79.6324 59.7541 79.3613 59.7541C79.1806 59.7541 79.0902 59.6643 78.9095 59.5744C78.8191 59.4846 78.7287 59.3948 78.6384 59.3049C78.548 59.2151 78.548 59.0354 78.4576 58.9456C78.4576 58.7659 78.4576 58.6761 78.4576 58.4964C78.4576 58.0472 78.548 57.5981 78.8191 57.1489C78.9998 56.6997 79.2709 56.3404 79.542 55.981C79.8132 55.6217 80.1746 55.3522 80.5361 55.0827C80.8976 54.8132 81.2591 54.7233 81.7109 54.7233C81.8916 54.7233 82.0724 54.7233 82.2531 54.7233C82.4339 54.7233 82.5242 54.8132 82.705 54.903C82.8857 54.7233 83.0664 54.6335 83.3375 54.6335C83.6086 54.6335 83.8798 54.7233 84.1509 54.903C84.0605 54.9928 83.8798 55.1725 83.7894 55.442C83.699 55.7115 83.5183 56.0709 83.4279 56.4302C83.3375 56.7896 83.2472 57.1489 83.1568 57.5082C83.0664 57.8676 82.9761 58.1371 82.9761 58.3167C82.9761 58.4964 82.9761 58.5863 82.9761 58.6761C83.0664 58.7659 83.0664 58.7659 83.1568 58.7659C83.2472 58.7659 83.4279 58.6761 83.5183 58.5862C83.699 58.4964 83.8798 58.3167 84.0605 58.1371C84.2412 57.9574 84.422 57.7777 84.6931 57.5981C84.8738 57.4184 85.0545 57.1489 85.2353 56.9692C85.2353 56.7895 85.3257 56.8794 85.3257 57.1489ZM82.2531 55.6217C82.3435 55.442 82.2531 55.2623 82.1627 55.2623C81.982 55.1725 81.8916 55.1725 81.7109 55.1725C81.5302 55.1725 81.3494 55.2623 81.1687 55.442C80.988 55.6217 80.8072 55.8014 80.6265 56.0709C80.4457 56.3404 80.265 56.6099 80.1746 56.9692C79.9939 57.3286 79.9035 57.5981 79.9035 57.9574C79.9035 58.2269 79.9035 58.4964 79.9035 58.6761C79.9939 58.8558 80.0843 58.9456 80.265 58.8558C80.3554 58.8558 80.5361 58.7659 80.7168 58.6761C80.8976 58.5863 80.988 58.4066 81.1687 58.2269C81.3494 58.0472 81.4398 57.8676 81.6205 57.5981C81.8013 57.3286 81.8916 57.1489 81.982 56.8794C82.0724 56.6099 82.1627 56.4302 82.2531 56.1607C82.1627 55.981 82.1627 55.8014 82.2531 55.6217Z" fill="white"/>
<path d="M91.9226 57.2387C91.9226 57.4184 91.9226 57.5981 91.8322 57.6879C91.8322 57.7777 91.7418 57.8676 91.6515 57.9574C91.4707 58.2269 91.1996 58.4066 91.0189 58.6761C90.8381 58.8558 90.567 59.0354 90.3863 59.2151C90.2056 59.3948 89.9344 59.4846 89.7537 59.5744C89.573 59.6643 89.3019 59.6643 89.1211 59.6643C88.9404 59.6643 88.7597 59.6643 88.6693 59.5744C88.5789 59.4846 88.4885 59.3948 88.3982 59.3049C88.3078 59.2151 88.3078 59.1253 88.3078 58.9456C88.3078 58.8558 88.3078 58.6761 88.3078 58.5863C88.3078 58.4066 88.3982 58.2269 88.3982 58.0472C88.4885 57.8676 88.4885 57.5981 88.5789 57.4184C88.6693 57.2387 88.6693 56.9692 88.7597 56.7896C88.85 56.6099 88.85 56.4302 88.85 56.2505C88.85 56.0709 88.85 55.981 88.85 55.981C88.85 55.8912 88.7597 55.8912 88.6693 55.8912C88.5789 55.8912 88.3982 55.981 88.3078 56.0709C88.1271 56.1607 88.0367 56.3404 87.856 56.52C87.6752 56.6997 87.4945 56.8794 87.4041 57.1489C87.2234 57.4184 87.0426 57.5981 86.9523 57.8676C86.7715 58.1371 86.6812 58.3168 86.5004 58.5863C86.4101 58.8558 86.2293 59.0354 86.139 59.2151C86.0486 59.3049 86.0486 59.3948 85.9582 59.4846C85.8678 59.5744 85.7775 59.5744 85.6871 59.6643C85.5967 59.6643 85.416 59.7541 85.3256 59.7541C85.1449 59.7541 84.9642 59.7541 84.6931 59.6643C84.8738 59.3948 84.9642 59.0354 85.0545 58.5863C85.1449 58.2269 85.3256 57.7777 85.416 57.4184C85.5064 56.9692 85.6871 56.5201 85.7775 56.1607C85.8678 55.8014 85.9582 55.442 86.0486 55.0827C86.139 54.7233 86.139 54.4538 86.2293 54.1843C86.3197 53.9148 86.3197 53.5555 86.4101 53.286C86.4101 53.1063 86.4101 52.9266 86.4101 52.747C86.4101 52.5673 86.3197 52.3876 86.2293 52.2978C86.7715 52.0283 87.2234 51.8486 87.4041 51.9385C87.5849 51.9385 87.6752 52.0283 87.7656 52.1181C87.856 52.208 87.856 52.3876 87.7656 52.5673C87.7656 52.6571 87.6752 52.8368 87.6752 53.1961C87.5849 53.5555 87.5849 53.9148 87.4945 54.364C87.4041 54.8132 87.3137 55.2624 87.2234 55.8014C87.133 56.2505 86.9523 56.7895 86.8619 57.1489C86.9523 56.9692 87.133 56.7896 87.4041 56.52C87.6752 56.2505 87.856 55.981 88.1271 55.7115C88.3982 55.442 88.6693 55.2624 88.9404 54.9929C89.2115 54.8132 89.4826 54.7233 89.7537 54.7233C89.9344 54.7233 90.0248 54.8132 90.2056 54.903C90.2959 54.9929 90.3863 55.1725 90.3863 55.442C90.3863 55.6217 90.3863 55.8912 90.2959 56.1607C90.2056 56.4302 90.2056 56.6997 90.1152 56.9692C90.0248 57.2387 89.9344 57.5082 89.9344 57.7777C89.8441 58.0473 89.8441 58.2269 89.7537 58.4964C89.7537 58.6761 89.7537 58.7659 89.8441 58.8558C89.9344 58.9456 90.0248 58.8558 90.2959 58.7659C90.4767 58.6761 90.6574 58.4964 91.0189 58.2269C91.29 57.9574 91.6515 57.6879 91.9226 57.3286C92.0129 57.2387 92.0129 57.2387 92.0129 57.2387C91.9226 57.0591 91.9226 57.1489 91.9226 57.2387Z" fill="white"/>
<path d="M96.441 55.3522C96.441 55.5319 96.3506 55.7116 96.1699 55.8014C95.9892 55.8912 95.8084 55.9811 95.5373 56.0709C95.447 56.0709 95.3566 56.0709 95.3566 56.0709C95.3566 56.0709 95.2662 55.9811 95.2662 55.8912C95.2662 55.6217 95.2662 55.5319 95.1759 55.3522C95.0855 55.2624 94.9951 55.1725 94.8144 55.1725C94.6336 55.1725 94.4529 55.2624 94.2722 55.3522C94.0914 55.442 94.0011 55.6217 93.8203 55.8912C93.73 56.0709 93.5492 56.3404 93.4588 56.6099C93.3685 56.8794 93.2781 57.2388 93.2781 57.5083C93.1877 58.0473 93.2781 58.3168 93.4588 58.5863C93.6396 58.8558 93.8203 58.8558 94.0914 58.8558C94.2722 58.8558 94.4529 58.8558 94.724 58.7659C94.9048 58.6761 95.1759 58.5863 95.3566 58.4066C95.5373 58.3168 95.7181 58.1371 95.8988 57.9574C96.0795 57.7778 96.2603 57.6879 96.3507 57.5083C96.441 57.4184 96.441 57.4184 96.441 57.4184C96.441 57.4184 96.441 57.5083 96.441 57.5981C96.441 57.7778 96.441 57.9574 96.441 58.0473C96.441 58.1371 96.3507 58.2269 96.3507 58.2269C96.1699 58.4066 95.9892 58.5863 95.8084 58.7659C95.6277 58.9456 95.3566 59.0355 95.1759 59.1253C94.9048 59.2151 94.724 59.305 94.4529 59.3948C94.1818 59.4846 94.0011 59.4846 93.73 59.4846C93.0974 59.4846 92.5552 59.305 92.2841 59.0355C91.9226 58.7659 91.8322 58.2269 91.9226 57.5981C92.0129 57.1489 92.1033 56.6997 92.2841 56.3404C92.4648 55.9811 92.7359 55.6217 93.0974 55.3522C93.3685 55.0827 93.73 54.8132 94.0914 54.6335C94.4529 54.4539 94.8144 54.364 95.1759 54.364C95.6277 54.364 95.8988 54.4539 96.1699 54.5437C96.3506 54.903 96.441 55.0827 96.441 55.3522ZM94.9047 60.922C94.9047 61.1017 94.9047 61.1915 94.8144 61.3712C94.724 61.5508 94.6336 61.6407 94.4529 61.7305C94.2722 61.8203 94.0914 61.9102 93.9107 62C93.73 62.0899 93.4588 62.0898 93.1877 62.0898C93.0974 62.0898 93.007 62.0899 93.007 62C93.007 62 92.9166 61.9102 92.9166 61.7305C92.9166 61.6407 92.9166 61.5508 92.9166 61.5508H93.007C93.2781 61.6407 93.5492 61.5508 93.73 61.461C93.9107 61.3712 94.0011 61.1915 94.0011 61.0118C94.0011 60.8322 93.9107 60.7423 93.8203 60.6525C93.6396 60.5627 93.4588 60.5627 93.2781 60.6525C93.1877 60.6525 93.1877 60.6525 93.1877 60.6525C93.1877 60.6525 93.1877 60.6525 93.0974 60.5627C93.0974 60.4728 93.0974 60.383 93.1877 60.2931C93.2781 60.2033 93.3685 60.1135 93.5492 59.844C93.5492 59.844 93.6396 59.844 93.6396 59.7541C93.73 59.7541 93.73 59.7541 93.8203 59.7541C93.9107 59.7541 93.9107 59.7541 94.0011 59.7541C94.0011 59.7541 94.0914 59.7541 94.0011 59.7541C94.0011 59.7541 94.0011 59.844 93.9107 59.844C93.9107 59.844 93.9107 59.844 93.9107 59.9338V60.0236C93.9107 60.0236 93.9107 60.0236 94.0011 60.0236C94.2722 60.0236 94.5433 60.0236 94.724 60.2033C94.8144 60.383 94.9047 60.6525 94.9047 60.922Z" fill="white"/>
<path d="M101.592 55.442C101.592 55.8014 101.502 56.0709 101.321 56.4302C101.14 56.6997 100.869 56.9692 100.598 57.1489C100.327 57.3286 99.9654 57.5082 99.6039 57.5082C99.2425 57.5981 98.881 57.5981 98.5195 57.5082C98.5195 57.6879 98.5195 57.7777 98.5195 57.9574C98.5195 58.1371 98.5195 58.3167 98.6099 58.4066C98.7002 58.5863 98.7002 58.6761 98.881 58.7659C98.9713 58.8558 99.1521 58.9456 99.3328 58.9456C99.6943 58.9456 100.056 58.8558 100.327 58.7659C100.688 58.5862 101.05 58.4066 101.411 57.9574C101.411 57.9574 101.502 57.8676 101.502 57.9574C101.502 57.9574 101.502 58.0472 101.502 58.2269C101.502 58.3167 101.502 58.4066 101.502 58.4964C101.502 58.5862 101.502 58.5863 101.502 58.6761C101.502 58.6761 101.502 58.7659 101.411 58.7659L101.321 58.8558C101.05 59.1253 100.688 59.3049 100.327 59.4846C99.9654 59.6643 99.5136 59.6643 99.0617 59.6643C98.7906 59.6643 98.5195 59.6643 98.2484 59.5744C97.9773 59.4846 97.7966 59.3948 97.6158 59.2151C97.4351 59.0354 97.3447 58.8558 97.2543 58.6761C97.164 58.4066 97.164 58.1371 97.164 57.8676C97.164 57.4184 97.3447 56.9692 97.5254 56.6099C97.7062 56.2505 97.9773 55.8912 98.3388 55.6217C98.6099 55.3522 98.9713 55.0827 99.3328 54.903C99.6943 54.7233 100.056 54.6335 100.417 54.6335C100.869 54.6335 101.14 54.7233 101.321 54.8132C101.502 54.903 101.592 55.1725 101.592 55.442ZM100.327 55.7115C100.327 55.5319 100.327 55.3522 100.237 55.2623C100.146 55.1725 100.056 55.0827 99.9654 55.0827C99.6943 55.0827 99.4232 55.2623 99.1521 55.6217C98.881 55.981 98.7002 56.4302 98.6099 56.9692C98.881 56.9692 99.0617 56.9692 99.2425 56.8794C99.4232 56.7896 99.6039 56.6997 99.7847 56.52C99.9654 56.3404 100.056 56.2505 100.146 56.0709C100.237 56.0709 100.327 55.8912 100.327 55.7115Z" fill="white"/>
<path d="M106.11 57.0591C106.11 57.2387 106.11 57.3286 106.02 57.4184C106.02 57.5082 105.93 57.5981 105.93 57.6879C105.659 57.9574 105.478 58.3167 105.207 58.4964C104.936 58.7659 104.755 58.9456 104.484 59.1253C104.303 59.3049 104.032 59.3948 103.851 59.4846C103.671 59.5744 103.49 59.5745 103.309 59.5745C102.948 59.5745 102.676 59.3948 102.586 59.0354C102.496 58.6761 102.496 58.2269 102.586 57.6879C102.676 57.3286 102.767 56.8794 102.857 56.4302C102.948 55.981 103.038 55.5319 103.219 55.0827C103.309 54.6335 103.49 54.1843 103.671 53.825C103.851 53.3758 103.942 53.0165 104.122 52.6571C104.213 52.4775 104.303 52.2978 104.303 52.208C104.393 52.1181 104.484 52.0283 104.574 51.9385C104.665 51.8486 104.845 51.8486 105.026 51.7588C105.207 51.7588 105.478 51.7588 105.749 51.7588C105.839 51.7588 105.839 51.7588 105.839 51.8486C105.839 51.8486 105.839 51.9385 105.749 51.9385C105.659 52.0283 105.568 52.208 105.478 52.3876C105.388 52.5673 105.297 52.747 105.207 52.9266C105.026 53.286 104.936 53.7352 104.755 54.0945C104.574 54.4538 104.484 54.903 104.393 55.2624C104.303 55.7115 104.122 56.0709 104.032 56.52C103.942 56.9692 103.851 57.4184 103.671 57.9574C103.58 58.2269 103.671 58.4964 103.761 58.4964C103.851 58.5863 104.032 58.4964 104.303 58.3168C104.574 58.1371 104.845 57.9574 105.116 57.5981C105.388 57.3286 105.659 56.9692 105.93 56.6099C106.02 56.5201 106.02 56.52 106.02 56.52C106.11 56.7896 106.11 56.8794 106.11 57.0591Z" fill="white"/>
<path d="M109.725 57.5082C109.725 57.7777 109.635 57.8676 109.635 57.9574C109.635 58.0472 109.544 58.1371 109.544 58.1371C109.364 58.3167 109.183 58.4964 109.002 58.6761C108.822 58.8558 108.55 59.0354 108.37 59.1253C108.189 59.3049 107.918 59.3948 107.737 59.4846C107.556 59.5744 107.376 59.5744 107.195 59.5744C106.743 59.5744 106.472 59.4846 106.291 59.1253C106.11 58.8558 106.11 58.4964 106.291 57.9574C106.382 57.7777 106.382 57.5981 106.472 57.3286C106.562 57.1489 106.653 56.8794 106.653 56.6997C106.743 56.52 106.833 56.3404 106.833 56.1607C106.833 55.981 106.924 55.8014 107.014 55.7115C107.105 55.2624 107.105 54.903 106.924 54.6335C107.105 54.5437 107.195 54.5437 107.376 54.4538C107.556 54.4538 107.647 54.364 107.827 54.364C107.918 54.364 108.008 54.364 108.099 54.4538C108.189 54.4538 108.279 54.5437 108.37 54.6335C108.46 54.7233 108.46 54.8132 108.46 54.903C108.46 54.9928 108.46 55.1725 108.37 55.3522C108.279 55.5319 108.189 55.8014 108.189 56.0709C108.099 56.3404 108.008 56.6099 107.918 56.7895C107.827 57.0591 107.737 57.2387 107.647 57.5082C107.556 57.7777 107.556 57.9574 107.466 58.1371C107.466 58.3167 107.466 58.4066 107.556 58.4964C107.647 58.5862 107.737 58.5862 107.918 58.4964C108.099 58.4066 108.37 58.2269 108.641 57.9574C108.912 57.6879 109.183 57.4184 109.454 57.0591C109.544 56.9692 109.544 56.9692 109.635 56.9692C109.725 57.1489 109.725 57.2387 109.725 57.5082ZM109.273 52.4775C109.273 52.6571 109.273 52.747 109.183 52.8368C109.093 52.9266 109.002 53.0165 108.912 53.1063C108.822 53.1961 108.641 53.1961 108.55 53.286C108.46 53.286 108.279 53.3758 108.189 53.3758C108.008 53.3758 107.827 53.3758 107.737 53.286C107.556 53.1961 107.466 53.1063 107.466 52.8368C107.466 52.747 107.466 52.5673 107.556 52.4775C107.647 52.3876 107.737 52.2978 107.827 52.208C107.918 52.1181 108.099 52.1181 108.189 52.0283C108.279 52.0283 108.46 51.9384 108.55 51.9384C108.731 51.9384 108.912 51.9384 109.002 52.0283C109.183 52.208 109.273 52.2978 109.273 52.4775Z" fill="white"/>
<path d="M114.244 55.442C114.244 55.8014 114.153 56.0709 113.973 56.4302C113.792 56.6997 113.521 56.9692 113.25 57.1489C112.978 57.3286 112.617 57.5082 112.256 57.5082C111.894 57.5981 111.533 57.5981 111.171 57.5082C111.171 57.6879 111.171 57.7777 111.171 57.9574C111.171 58.1371 111.171 58.3167 111.261 58.4066C111.352 58.5863 111.352 58.6761 111.533 58.7659C111.623 58.8558 111.804 58.9456 111.984 58.9456C112.346 58.9456 112.707 58.8558 112.978 58.7659C113.34 58.5862 113.701 58.4066 114.063 57.9574C114.063 57.9574 114.153 57.8676 114.153 57.9574C114.153 57.9574 114.153 58.0472 114.153 58.2269C114.153 58.3167 114.153 58.4066 114.153 58.4964C114.153 58.5862 114.153 58.5863 114.153 58.6761C114.153 58.6761 114.153 58.7659 114.063 58.7659L113.973 58.8558C113.701 59.1253 113.34 59.3049 112.978 59.4846C112.617 59.6643 112.165 59.6643 111.713 59.6643C111.442 59.6643 111.171 59.6643 110.9 59.5744C110.629 59.4846 110.448 59.3948 110.267 59.2151C110.087 59.0354 109.996 58.8558 109.906 58.6761C109.816 58.4066 109.816 58.1371 109.816 57.8676C109.816 57.4184 109.996 56.9692 110.177 56.6099C110.358 56.2505 110.629 55.8912 110.99 55.6217C111.261 55.3522 111.623 55.0827 111.984 54.903C112.346 54.7233 112.707 54.6335 113.069 54.6335C113.521 54.6335 113.792 54.7233 113.973 54.8132C114.153 54.903 114.244 55.1725 114.244 55.442ZM112.978 55.7115C112.978 55.5319 112.978 55.3522 112.888 55.2623C112.798 55.1725 112.707 55.0827 112.617 55.0827C112.346 55.0827 112.075 55.2623 111.804 55.6217C111.533 55.981 111.352 56.4302 111.261 56.9692C111.533 56.9692 111.713 56.9692 111.894 56.8794C112.075 56.7896 112.256 56.6997 112.436 56.52C112.617 56.3404 112.707 56.2505 112.798 56.0709C112.888 56.0709 112.978 55.8912 112.978 55.7115Z" fill="white"/>
<path d="M120.208 54.903C120.208 55.1725 120.118 55.442 120.027 55.7115C119.937 56.0709 119.756 56.3404 119.485 56.7896C119.214 57.1489 118.943 57.5981 118.581 57.9574C118.22 58.4066 117.768 58.8558 117.226 59.3049C117.045 59.4846 116.774 59.5744 116.593 59.5744C116.413 59.5744 116.141 59.5744 115.87 59.4846C115.87 59.3049 115.87 59.0354 115.87 58.6761C115.87 58.4066 115.87 58.0472 115.87 57.6879C115.87 57.3286 115.87 57.0591 115.78 56.7896C115.78 56.52 115.69 56.2505 115.69 56.0709C115.599 55.7115 115.599 55.442 115.509 55.2624C115.418 55.0827 115.328 54.903 115.147 54.8132C115.328 54.7233 115.509 54.6335 115.69 54.6335C115.87 54.5437 116.051 54.5437 116.141 54.5437C116.322 54.5437 116.503 54.5437 116.593 54.6335C116.684 54.7233 116.774 54.903 116.864 55.0827C116.864 55.2624 116.955 55.5319 116.955 55.8014C116.955 56.0709 117.045 56.3404 117.045 56.6997C117.045 56.9692 117.045 57.3286 117.045 57.5981C117.045 57.9574 117.045 58.2269 116.955 58.5863C117.316 58.1371 117.678 57.7777 117.949 57.3286C118.22 56.9692 118.401 56.6099 118.581 56.3404C118.762 56.0709 118.852 55.7115 118.852 55.5319C118.943 55.2624 118.943 55.0827 118.852 54.8132C118.852 54.7233 118.852 54.5437 118.762 54.5437C118.762 54.4538 118.672 54.364 118.672 54.364V54.2742L118.762 54.1843C119.033 54.0945 119.214 54.0945 119.304 54.0945C119.485 54.0945 119.575 54.1843 119.666 54.1843C119.756 54.2742 119.847 54.364 119.847 54.4538C120.208 54.6335 120.208 54.7233 120.208 54.903Z" fill="white"/>
<path d="M124.726 57.0591C124.726 57.2387 124.726 57.3286 124.636 57.4184C124.636 57.5082 124.546 57.5981 124.546 57.6879C124.275 57.9574 124.094 58.3167 123.823 58.4964C123.552 58.7659 123.371 58.9456 123.1 59.1253C122.919 59.3049 122.648 59.3948 122.467 59.4846C122.287 59.5744 122.106 59.5745 121.925 59.5745C121.564 59.5745 121.292 59.3948 121.202 59.0354C121.112 58.6761 121.112 58.2269 121.202 57.6879C121.292 57.3286 121.383 56.8794 121.473 56.4302C121.564 55.981 121.654 55.5319 121.835 55.0827C121.925 54.6335 122.106 54.1843 122.287 53.825C122.467 53.3758 122.558 53.0165 122.738 52.6571C122.829 52.4775 122.919 52.2978 122.919 52.208C123.009 52.1181 123.1 52.0283 123.19 51.9385C123.281 51.8486 123.461 51.8486 123.642 51.7588C123.823 51.7588 124.094 51.7588 124.365 51.7588C124.455 51.7588 124.455 51.7588 124.455 51.8486C124.455 51.8486 124.455 51.9385 124.365 51.9385C124.275 52.0283 124.184 52.208 124.094 52.3876C124.004 52.5673 123.913 52.747 123.823 52.9266C123.642 53.286 123.552 53.7352 123.371 54.0945C123.19 54.4538 123.1 54.903 123.009 55.2624C122.919 55.7115 122.738 56.0709 122.648 56.52C122.558 56.9692 122.467 57.4184 122.287 57.9574C122.196 58.2269 122.287 58.4964 122.377 58.4964C122.467 58.5863 122.648 58.4964 122.919 58.3168C123.19 58.1371 123.461 57.9574 123.732 57.5981C124.004 57.3286 124.275 56.9692 124.546 56.6099C124.636 56.5201 124.636 56.52 124.636 56.52C124.726 56.7896 124.726 56.8794 124.726 57.0591Z" fill="white"/>
<path d="M128.974 55.442C128.974 55.8014 128.883 56.0709 128.703 56.4302C128.522 56.6997 128.251 56.9692 127.98 57.1489C127.709 57.3286 127.347 57.5082 126.986 57.5082C126.624 57.5981 126.263 57.5981 125.901 57.5082C125.901 57.6879 125.901 57.7777 125.901 57.9574C125.901 58.1371 125.901 58.3167 125.992 58.4066C126.082 58.5863 126.082 58.6761 126.263 58.7659C126.353 58.8558 126.534 58.9456 126.715 58.9456C127.076 58.9456 127.438 58.8558 127.709 58.7659C128.07 58.5862 128.432 58.4066 128.793 57.9574C128.793 57.9574 128.883 57.8676 128.883 57.9574C128.883 57.9574 128.883 58.0472 128.883 58.2269C128.883 58.3167 128.883 58.4066 128.883 58.4964C128.883 58.5862 128.883 58.5863 128.883 58.6761C128.883 58.6761 128.883 58.7659 128.793 58.7659L128.703 58.8558C128.432 59.1253 128.07 59.3049 127.709 59.4846C127.347 59.6643 126.895 59.6643 126.443 59.6643C126.172 59.6643 125.901 59.6643 125.63 59.5744C125.359 59.4846 125.178 59.3948 124.998 59.2151C124.817 59.0354 124.726 58.8558 124.636 58.6761C124.546 58.4066 124.546 58.1371 124.546 57.8676C124.546 57.4184 124.726 56.9692 124.907 56.6099C125.088 56.2505 125.359 55.8912 125.721 55.6217C125.992 55.3522 126.353 55.0827 126.715 54.903C127.076 54.7233 127.438 54.6335 127.799 54.6335C128.251 54.6335 128.522 54.7233 128.703 54.8132C128.883 54.903 128.974 55.1725 128.974 55.442ZM127.709 55.7115C127.709 55.5319 127.709 55.3522 127.618 55.2623C127.528 55.1725 127.438 55.0827 127.347 55.0827C127.076 55.0827 126.805 55.2623 126.534 55.6217C126.263 55.981 126.082 56.4302 125.992 56.9692C126.263 56.9692 126.443 56.9692 126.624 56.8794C126.805 56.7896 126.986 56.6997 127.166 56.52C127.347 56.3404 127.438 56.2505 127.528 56.0709C127.709 56.0709 127.709 55.8912 127.709 55.7115Z" fill="white"/>
<path d="M134.215 55.1725C134.215 55.3522 134.125 55.6217 134.034 55.8014C133.944 55.981 133.763 56.1607 133.673 56.2505C133.583 56.0709 133.492 56.0709 133.221 56.0709C133.04 56.0709 132.95 56.0709 132.86 56.1607C132.769 56.2505 132.589 56.3404 132.498 56.4302C132.408 56.5201 132.317 56.6997 132.227 56.7896C132.137 56.8794 132.046 57.0591 132.046 57.1489C131.775 57.6879 131.504 58.3168 131.233 59.1253C131.143 59.5745 130.691 59.7541 129.877 59.4846C129.968 59.2151 130.058 58.8558 130.149 58.4964C130.239 58.1371 130.329 57.8676 130.42 57.5082C130.51 57.1489 130.6 56.8794 130.6 56.6099C130.691 56.3404 130.691 56.0709 130.691 55.8912C130.691 55.7115 130.691 55.442 130.691 55.2624C130.691 55.0827 130.6 54.903 130.51 54.8132C130.962 54.5437 131.414 54.4538 131.594 54.4538C131.775 54.4538 131.866 54.4538 131.956 54.6335C132.046 54.7233 132.046 54.903 132.046 55.0827C132.046 55.1725 132.046 55.2624 131.956 55.442C131.956 55.6217 131.866 55.7115 131.866 55.8912C131.866 56.0709 131.775 56.2505 131.685 56.3404C131.594 56.52 131.594 56.6099 131.594 56.6997C131.775 56.4302 131.956 56.1607 132.137 55.8912C132.317 55.6217 132.498 55.3522 132.679 55.1725C132.86 54.9928 133.04 54.8132 133.221 54.6335C133.402 54.5437 133.583 54.4538 133.763 54.4538C134.125 54.5437 134.306 54.7233 134.215 55.1725Z" fill="white"/>
</g>
<defs>
<clipPath id="clip0_2_413">
<rect width="155" height="62" fill="white"/>
</clipPath>
</defs>
</svg>
