<svg xmlns="http://www.w3.org/2000/svg" width="437" height="235" fill="none" viewBox="0 0 437 235" class="world-map">
  <g class="world-map 1">
    <path fill="#fff" d="M334 4 104 2.5c-7 2.333-24.6 9.6-39 20-18 13-44.5 36-53.5 55.5s-12.5 34-8 59 25 46 46 65c16.8 15.2 43 27 54 31l230.5.5c7.167-1.5 33.5-15 53.5-31 32-26.5 40.5-48.5 43-54.5s8.5-32 2-51.5-13.5-29-18.5-35l-.268-.322C408.595 55.011 397.125 41.239 376 26.5c-17.2-12-35.167-20-42-22.5Z" class="Vector 329"/>
    <path fill="#1C1D22" d="M241.512 233.857c-.121-.12-31.238-.241-69.15-.268l-68.93-.049-3.912-1.398c-10.347-3.699-27.207-12.857-39.233-21.311-16.435-11.553-33.483-28.476-44.476-44.147-7.023-10.013-12.274-23.514-14.187-36.479-.94-6.381-.798-18.732.295-25.508 2.18-13.514 8.523-28.832 15.729-37.988.89-1.131 1.428-2.057 1.194-2.057-.233 0-.033-.308.445-.686.478-.377 2.78-3.03 5.117-5.897 5.616-6.891 18.471-19.571 25.842-25.491C64.34 21.258 81.389 11.204 97.275 4.843l7.1-2.843 88.762.404c48.819.222 89.748.465 90.954.54 1.205.076 13.163.321 26.573.545l24.383.406 4.383 1.654c5.725 2.16 19.533 9.246 27.774 14.253 25.158 15.283 49.548 40.233 59.663 61.033 5.278 10.852 7.601 19.165 8.808 31.513 1.428 14.612-1.907 31.764-8.862 45.583-8.522 16.931-30.478 39.855-52.729 55.052-9.072 6.196-23.319 13.915-34.718 18.809l-4.867 2.09-46.384.097c-25.512.054-46.483-.001-46.603-.122Zm99.288-3.741c23.805-10.228 41.962-22.516 60.026-40.625 20.304-20.354 28.388-33.613 32.639-53.526 1.024-4.799 1.235-7.546 1.265-16.457.04-11.772-.86-17.867-4.052-27.428-1.882-5.64-5.434-13.165-6.213-13.165-.311 0-.411-.155-.222-.344 1.285-1.287-11.214-18.158-21.244-28.675-6.009-6.302-17.501-16.365-24.119-21.121-6.208-4.46-15.145-10.202-15.882-10.202-.27 0-.037.333.518.74 1.49 1.09.178 1.625-2.299.937-2.639-.734-2.884-.724-2.884.113 0 .381.555.936 1.233 1.234 1.027.451 1.237.983 1.258 3.19.024 2.465-.06 2.632-1.221 2.41-.846-.162-1.48.132-1.973.917-.992 1.58-.657 2.616 1.264 3.904.895.6 1.628 1.38 1.629 1.732a.954.954 0 0 0 .609.843c.82.273 1.086 6.479.276 6.447-.335-.013-2.15-1.432-4.032-3.154-3.147-2.879-3.473-3.395-4.061-6.422-.67-3.444-2.653-7.036-2.653-4.804 0 .607-.373 1.414-.829 1.793-.599.498-.668.882-.247 1.39.881 1.062-.147 1.441-4.509 1.665-2.118.109-4.175.466-4.569.794-1.043.867-1.596 4.79-.81 5.738.355.428 1.303.749 2.106.713.804-.036 1.921.136 2.483.383.867.38.965.269.648-.732-.205-.649-.189-1.18.038-1.18.226 0 2.204 1.778 4.395 3.951 2.767 2.745 3.823 4.145 3.458 4.586-.352.423-.161 1.097.573 2.032.604.769 1.098 1.668 1.098 1.997 0 .33.34.6.755.6s1.062.37 1.437.822c.375.453 1.131.823 1.679.823 1.304 0 1.788.854 1.388 2.45-.251 1.003-.596 1.225-1.558 1-.999-.233-.848.041.784 1.433 1.45 1.236 2.26 2.553 2.876 4.675 1.098 3.78 1.092 3.86-.375 4.613-2.185 1.121-3.391 1.99-4.138 2.98-.402.534-.961.828-1.241.654-.281-.174-.511.44-.511 1.362 0 2.11-.422 2.106-2.432-.026-1.412-1.498-1.498-1.765-.706-2.209.496-.277.773-.838.617-1.246-.157-.409.408-1.288 1.255-1.956.847-.667 1.544-1.375 1.549-1.574.017-.757.908-1.74 1.336-1.474.246.152.581-.4.743-1.226.197-1.001-.147-2.301-1.033-3.902-.731-1.32-1.329-2.852-1.329-3.403 0-1.247-1.129-3.797-1.682-3.797-.226 0-1.547-1.727-2.937-3.84-1.39-2.111-2.797-3.84-3.128-3.84-.331 0 .008.803.753 1.783 1.849 2.434 2.362 6.225 1.226 9.066-.494 1.237-1.348 2.33-1.94 2.486-.695.182-1.058.755-1.058 1.667 0 .765-.27 1.558-.6 1.762-.379.234-.026.91.959 1.836.857.806 1.984 2.225 2.505 3.153.901 1.608.899 1.731-.043 2.585-.545.493-1.217.895-1.495.893-.537-.004-2.6-3.19-2.66-4.11-.02-.302-.591-.628-1.269-.725-.82-.116-1.233-.551-1.233-1.298 0-1.132-.483-1.162-2.876-.176-.74.305-.959.124-.959-.793 0-1.317-.793-1.068-1.64.515-.689 1.289.866 3.196 1.824 2.237.707-.708 2.378-.767 2.79-.1.164.267-.183 1.098-.772 1.847l-1.07 1.362 2.177 1.956c1.434 1.289 2.215 2.484 2.291 3.502.064.85.487 1.83.94 2.176.715.546.731 1.085.121 4.044-.85 4.116-2.87 7.521-4.744 7.992-.753.19-1.369.538-1.369.774s-.61.583-1.355.77c-1.143.287-1.307.58-1.049 1.873.326 1.63-.893 3.24-1.955 2.583-.751-.465-.736-2.318.023-2.787 1.05-.65-.414-1.506-1.925-1.127-2.308.58-1.889 2.828 1.035 5.553 4.357 4.062 4.693 6.902 1.161 9.8-2.647 2.172-3.058 2.343-3.058 1.271 0-.665-2.235-2.999-4.562-4.764-.855-.648-1.073-.644-1.498.029-1.306 2.065.101 6.029 3.4 9.579 1.164 1.253 3.136 5.719 3.202 7.253.003.076-.444.138-.995.138-1.527 0-4.478-3.838-4.478-5.825 0-.922-2.039-4.616-2.864-5.189-.25-.174-.546-1.655-.657-3.291-.11-1.636-.576-3.962-1.034-5.17-.783-2.06-.954-2.183-2.797-2.013-1.944.178-1.963.16-1.945-1.92.009-1.155.379-2.58.821-3.165 1.223-1.618.996-1.952-1.32-1.952-1.22 0-2.415-.35-2.806-.823-.861-1.038-1.644-1.059-1.644-.044 0 .429-.74.942-1.644 1.14-.904.2-1.643.59-1.643.867 0 .278-.317.505-.704.505-.387 0-1.125.713-1.639 1.584-.514.872-1.798 2.344-2.854 3.272-1.056.929-1.883 2.129-1.837 2.667.297 3.468-.18 6.02-1.387 7.425-.712.83-1.585 1.509-1.938 1.509s-1.449-1.684-2.434-3.742c-.985-2.058-2.345-4.64-3.023-5.738-1.171-1.897-1.514-3.24-1.655-6.49-.053-1.215-.267-1.393-1.412-1.174-1.219.234-3.034-.832-3.034-1.781 0-.194-.37-.723-.822-1.176-.452-.452-.822-.627-.822-.387s-.366-.088-.813-.727c-.697-.997-1.473-1.19-5.435-1.356-3.995-.168-4.815-.376-6.043-1.53-.982-.925-1.597-1.162-1.99-.768-.72.72-3.02.302-3.85-.7-.348-.419-.93-.762-1.294-.762s-.992-.617-1.395-1.371c-.465-.87-1.208-1.372-2.03-1.372-1.068 0-1.205.17-.78.967.284.53 1.032 1.433 1.663 2.004.631.572 1.147 1.343 1.147 1.713 0 .37.518.81 1.151.975.633.166.988.565.789.887-.226.367.274.586 1.341.586 1.134 0 2.148-.481 3.036-1.442.96-1.037 1.399-1.229 1.565-.685.127.415.37 1.187.54 1.715.171.528.791.96 1.379.96 1.299 0 2.062 2.696 1.213 4.284-.311.582-.454 1.169-.318 1.305.444.445-3.268 4.114-4.587 4.533-.707.225-1.744.867-2.303 1.427-1.449 1.451-5.973 3.434-7.96 3.49-1.105.03-1.694.33-1.706.869-.047 2.124 2.459 2.78 6.352 1.662 1.02-.293 2.054-.41 2.296-.26 1.243.769-3.079 9.376-6.595 13.135-2.592 2.772-5.013 5.795-6.706 8.375-1.013 1.542-.964 7.148.068 7.786.304.189.715 2.083.912 4.209.332 3.577.264 3.955-.911 5.051-.698.651-1.609 1.184-2.024 1.184-.416 0-1.594.64-2.618 1.422-1.825 1.394-1.857 1.489-1.577 4.672.278 3.17.244 3.272-1.39 4.2-.93.529-1.555 1.267-1.407 1.661.368.981-1.844 4.34-5.321 8.08l-2.922 3.143-4.625.068-4.624.068-.509-1.646a41.952 41.952 0 0 0-1.206-3.291c-.384-.905-.779-2.016-.877-2.469-.099-.452-.315-.946-.48-1.097-.401-.365-2.041-6.342-2.432-8.859-.171-1.101-.92-2.901-1.666-4.001-1.815-2.678-1.786-5.394.08-7.614 1.301-1.549 1.404-2.005 1.104-4.886-.318-3.039-.955-4.575-3.928-9.473-1.396-2.299-1.731-4.363-.803-4.937.731-.452.693-2.098-.088-3.814-.451-.992-1.062-1.397-2.107-1.397-.808 0-1.917-.494-2.462-1.098-1.101-1.218-3.155-1.38-6.575-.519-1.205.304-4.017.614-6.247.69-3.733.127-4.235.008-6.29-1.482-2.76-2.002-3.963-3.378-4.985-5.702-.436-.991-1.18-2.19-1.654-2.663-.473-.474-.731-1.268-.574-1.764.157-.496.416-3.449.576-6.561.354-6.925 1.437-9.38 6.255-14.189 1.832-1.828 3.33-3.72 3.33-4.205 0-.485.629-1.294 1.398-1.798.769-.504 1.754-1.607 2.19-2.45.68-1.316 1.084-1.514 2.849-1.394 1.131.077 3.535-.165 5.344-.538 1.808-.373 5.136-.634 7.396-.582l4.11.096-.123 2.04c-.119 1.966-.041 2.061 2.191 2.654 1.273.338 2.808 1.054 3.411 1.591 1.76 1.568 3.757 1.81 4.542.552.85-1.362 2.562-1.368 7.179-.023 1.991.58 4.853 1.011 6.36.959 2.389-.083 2.762-.254 2.915-1.329.118-.83.565-1.247 1.369-1.276.658-.024.887-.168.51-.32-.376-.153-.688-.935-.693-1.74-.013-2.236-.729-3.065-2.042-2.361-.601.322-1.248.43-1.437.242-.189-.19-1.198-.312-2.242-.273-1.044.04-2.039-.157-2.211-.436-.173-.279-.656-.375-1.076-.214-.426.164-1.031-.21-1.371-.847-.335-.626-.428-1.14-.207-1.14.222 0 .107-.296-.254-.658-.362-.362-.658-1.226-.658-1.92 0-1.433-.805-1.63-1.957-.478-.964.966-1 2.058-.097 3.016.547.581.547.777 0 .978-.377.138-.685.619-.685 1.069 0 .483-.392.741-.959.632-.53-.102-.959-.673-.959-1.274 0-.6-.29-1.337-.645-1.639-.354-.301-1.152-1.535-1.773-2.742s-2.057-2.808-3.191-3.559c-1.134-.75-2.493-1.837-3.021-2.415-.527-.578-.959-.866-.959-.64 0 .923 2.268 3.5 4.353 4.946 2.31 1.604 2.809 2.49 1.401 2.49-.452 0-.827.433-.832.96-.005.528-.608 1.529-1.34 2.224-1.268 1.204-1.41 1.222-3.004.397-2.297-1.189-2.097-1.935.518-1.935 1.206 0 2.192-.206 2.192-.458 0-.694-2.988-3.213-4.312-3.633-.642-.204-1.167-.62-1.167-.922 0-.695-1.169-1.795-2.125-2-1.181-.253-2.794.445-2.658 1.15.07.362-.422.623-1.107.586-.888-.047-1.233.24-1.233 1.027 0 .769-.203.948-.685.606-.617-.44-1.024-.476-2.876-.258-.302.035-.615.987-.695 2.114-.281 3.92-3.437 5.386-8.314 3.862-1.601-.5-2.211-1.02-2.415-2.057-.15-.764-.045-1.623.233-1.91.279-.286.506-1.567.506-2.847s.305-2.515.677-2.745c.372-.23 2.155-.43 3.961-.444 3.973-.03 4.451-.897 1.963-3.563-1.754-1.88-1.745-3.042.02-2.481.587.186 1.05.075 1.05-.252 0-.322.399-.586.886-.586.488 0 1.783-.736 2.877-1.636 4.117-3.385 3.809-3.215 6.73-3.712 1.28-.217 1.404-.42 1.044-1.7-.514-1.824-.228-2.682 1.141-3.415.991-.531 1.063-.414.911 1.48-.157 1.953-.068 2.078 1.753 2.463 2.001.424 6.377-.43 7.461-1.455.337-.318.785-1.123.996-1.787.237-.748.828-1.21 1.551-1.21.896 0 1.018-.15.524-.644-.995-.997.252-2.098 2.378-2.098 1 0 1.971-.247 2.157-.548.429-.696-1.113-.704-3.498-.019-2.572.739-3.899-.069-3.899-2.374 0-1.218.448-2.225 1.377-3.1.872-.82 1.186-1.487.856-1.817-.531-.531-5.493 3.79-5.511 4.798-.005.278.379.934.853 1.46.791.874.736 1.15-.663 3.334-1.742 2.717-3.202 4.3-3.968 4.3-.289 0-.94-1.247-1.446-2.77-.908-2.738-.935-2.761-2.216-1.92-1.605 1.052-2.14 1.063-3.138.065-.645-.646-.823-2.542-.451-4.802.034-.207 1.002-.906 2.151-1.552 1.149-.647 2.657-2.082 3.351-3.19 1.665-2.655 5.305-5.579 6.947-5.579.721 0 1.31-.227 1.31-.504s1.172-.756 2.603-1.064c1.979-.426 2.865-.39 3.698.146.603.39 2.452 1.023 4.11 1.409 5.132 1.195 6.678 2.013 6.477 3.43-.152 1.077-.486 1.24-2.465 1.201-1.822-.035-2.346.172-2.566 1.015-.152.582-.131.913.047.735.178-.178.655-.05 1.059.287.548.455.735.437.735-.073 0-.47.523-.58 1.671-.35.919.184 1.543.127 1.387-.126-.156-.253.324-1.033 1.068-1.733.745-.7 1.353-1.741 1.353-2.314 0-.697.318-.98.959-.857.528.101.959.47.959.817 0 1.238.636 1.218 3.248-.106 1.455-.738 2.866-1.206 3.134-1.04.696.431 4.302-.846 4.302-1.523 0-.517 1.169-.392 3.899.416.692.204.828-.04.623-1.113-.144-.757-.106-1.998.085-2.76.325-1.298.549-1.379 3.635-1.309 1.809.041 3.407.266 3.551.5.464.75 2.395-.082 2.083-.898-.178-.463.055-.769.585-.769.485 0 .881-.28.881-.625 0-1.39 3.258-3.095 6.835-3.58 1.213-.164 2.619-.665 3.125-1.113.654-.58 1.194-.66 1.872-.28.523.293 1.907.404 3.074.248 1.692-.228 2.388-.036 3.431.945.72.677 1.189 1.543 1.042 1.925-.472 1.234 4.165 1.46 10.933.532 2.225-.305 2.833-.183 3.852.775 1.58 1.487 5.831 1.49 7.716.007 1.417-1.116 5.24-1.417 5.24-.412 0 .438.226.428.785-.036.556-.462 1.335-.5 2.675-.13 1.04.288 2.914.336 4.163.108 1.827-.335 2.531-.212 3.593.624 1.081.851 2.122 1.021 5.712.933 2.414-.06 4.262-.314 4.107-.567-.156-.252.042-.583.44-.736.654-.252 8.262.37 13.866 1.133 1.705.232.164-.73-6.945-4.333-5.026-2.548-11.067-5.377-13.424-6.287l-4.287-1.655-38.902-.328c-21.396-.18-48.518-.446-60.27-.589-11.753-.143-46.025-.284-76.16-.314l-54.792-.053-7.352 3.074c-7.207 3.014-12.131 5.382-17.009 8.18-1.929 1.107-2.246 1.479-1.506 1.763.515.198 1.3.221 1.742.051.442-.17.969-.041 1.17.285.21.34.664-.112 1.061-1.058.745-1.774 1.244-1.925 8.81-2.665 2.48-.243 3.694-.116 4.657.488.718.45 2.044.988 2.948 1.196.904.208 2.311 1.013 3.125 1.79 1.384 1.316 1.638 1.369 3.836.793 2.485-.65 6.463-.678 6.463-.045 0 .206 1.171.766 2.603 1.244 2.036.68 2.721.723 3.15.198.302-.37 1.165-.602 1.918-.518l1.37.153-1.37-.815c-.753-.448-2.026-.824-2.828-.835-2.26-.03-1.618-1.732 1.197-3.173 3.018-1.545 5.232-1.595 6.141-.137.377.603 1.242 1.097 1.923 1.097s1.238.275 1.238.612c0 .358.57.504 1.369.35 1.11-.212 1.372-.042 1.378.897.004.637.155 1.709.335 2.382.257.96.029 1.339-1.05 1.75-2.765 1.052-2.293 1.764.983 1.483 1.716-.147 3.261-.41 3.435-.584.635-.636.412-3.033-.307-3.31-.886-.34-.667-2.757.249-2.757.352 0 .824-.186 1.05-.412.226-.226.991-.411 1.7-.411 1.12 0 1.246.197.962 1.508l-.327 1.509.744-1.372c.567-1.046 1.183-1.371 2.599-1.371 2.282 0 2.799 1.131.911 1.993-1.016.463-1.594.473-2.121.035-.57-.474-.751-.232-.856 1.145-.073.96-.371 1.985-.662 2.276-.819.82-.626 1.562.313 1.202a.875.875 0 0 1 1.166.52c.274.715.512.665 1.568-.328.915-.861 1.178-1.599.991-2.784-.229-1.456-.028-1.714 2.058-2.65 2.041-.914 2.158-1.058.994-1.222-.892-.127-1.319-.543-1.319-1.284 0-.604-.189-1.389-.42-1.745-.799-1.234.805-1.396 2.368-.24 2.439 1.806 3.438 1.355 2.185-.987-.409-.767-.125-1.416 1.307-2.981 1.979-2.163 3.864-2.602 4.283-.998.304 1.163-.852 3.013-1.509 2.417-.245-.222-.266-.092-.048.287.251.436-.071.878-.871 1.2-.697.28-.898.517-.446.526 1.787.038 3.957-2.93 3.479-4.759-.259-.993-.026-1.093 2.456-1.056 1.509.023 3.129-.28 3.601-.672.944-.784 6.86-.568 11.285.412 1.356.3 3.452.613 4.657.696 1.205.082 2.5.381 2.876.664.481.36.685.236.685-.414 0-.677.295-.833 1.096-.578.629.2 1.096.098 1.096-.238 0-.77 4.211-.76 4.687.011.265.43.535.43.964 0 .773-.775 7.384-.77 9.609.006 1.801.629 2.207 1.316 1.04 1.764-.376.144.729.13 2.456-.03 2.099-.196 3.414-.066 3.966.393 1.159.963.533 1.655-1.523 1.681-1.133.015-2.423.605-3.666 1.678-1.768 1.525-1.843 1.71-.959 2.37 1.255.934 1.214 1.416-.119 1.416-.734 0-.978.263-.764.823.174.452.066.822-.24.822-.305 0-.436.457-.29 1.015.197.752-.256 1.262-1.752 1.973-1.471.698-1.853 1.122-1.412 1.563.776.777.775 1.483-.001 1.483-.333 0-1.073.595-1.644 1.322-.785 1-1.975 1.49-4.873 2.008-2.11.377-3.835.867-3.835 1.087 0 .469-4.189 2.226-4.831 2.027-.69-.214-4.476 2.538-4.48 3.256-.002.357-.457.793-1.012.97-.554.176-1.336.933-1.736 1.682-.512.958-1.189 1.362-2.28 1.362-.853 0-1.551-.246-1.551-.548 0-.302-.33-.549-.734-.549-.843 0-2.296-3.962-2.088-5.694.077-.64.189-1.604.249-2.143.059-.54.478-1.214.93-1.5.595-.377.624-.522.104-.528-.394-.005-.565-.256-.378-.557.186-.302.79-.549 1.343-.549.553 0 1.147-.37 1.32-.823.174-.452.077-.823-.215-.823-.916 0-.577-1.004.428-1.267.861-.225.855-.257-.064-.315-.806-.05-.938-.324-.622-1.297.22-.68.518-2.127.662-3.218.241-1.825.138-2.008-1.295-2.29-.857-.167-1.792-.077-2.078.201-.864.84-4.137.616-4.137-.284 0-.434.224-.928.497-1.097.273-.17.367-.801.21-1.404-.252-.963-.016-1.097 1.924-1.097 2.829 0 3.951-.44 3.581-1.406-.2-.522-.584-.616-1.198-.293-.497.261-1.977.653-3.287.87-1.311.218-2.784.863-3.273 1.435-.489.572-1.343 1.04-1.899 1.04-1.345 0-2.696.762-4.865 2.746-1.723 1.575-1.744 1.642-.514 1.642 1.004 0 1.22.234 1 1.078-.192.737.05 1.184.766 1.411.576.183.906.562.733.842-.173.28.089.51.581.51.663 0 .852.416.728 1.6a3.628 3.628 0 0 0 .895 2.774c1.148 1.27.819 2.418-1.016 3.543-.738.452-1.116.367-1.667-.375-1.075-1.447-1.379-1.166-1.035.955.314 1.938-.586 3.846-1.537 3.258-.267-.165-.486.208-.486.829 0 1.34-.69 1.457-1.665.281-.386-.466-1.026-.723-1.421-.571-.47.18-.919-.464-1.294-1.858-.422-1.57-.897-2.181-1.795-2.309-1.805-.257-1.556-1.814.295-1.843 1.068-.017 2.015-.63 3.203-2.073 2.121-2.577 1.838-3.818-.706-3.087-.989.284-2.296.366-2.906.182-.886-.266-.975-.193-.441.369.528.556.38.967-.714 1.981-1.653 1.534-1.802 1.551-2.81.32-.432-.528-.633-.656-.446-.286.208.413-.36.98-1.466 1.464-.993.434-1.518.81-1.166.835.352.024 1.171.904 1.819 1.954.813 1.317 1.844 2.109 3.325 2.553 2.228.668 3.962 2.604 3.689 4.117-.087.481.27 1.151.795 1.49.773.498 1.115.381 1.818-.623 1.199-1.714 1.886-1.047 1.886 1.831 0 1.583.336 2.779.959 3.413.527.537 1.29 1.614 1.696 2.394.632 1.214.612 1.66-.137 3.11-1.005 1.946-1.12 3.22-.315 3.489.512.17.806 1.903.614 3.607-.109.96-1.538.858-1.919-.137-.198-.516-1.036-.823-2.251-.823-2.461 0-2.464-.788-.014-3.459 2.063-2.249 2.591-3.358.846-1.776-.824.746-1.949.955-4.9.91-2.108-.032-3.984.187-4.169.488-.185.3.129.546.7.546 1.659 0 1.863.65.619 1.976-1.28 1.364-1.005 2.412.632 2.412 1.883 0 1.134 1.497-1.265 2.527-1.28.55-2.513 1.092-2.739 1.203-.879.431-.356-1.513.548-2.04.85-.496.857-.561.058-.576-.495-.01-1.024.307-1.175.702-.152.396-1.288 1.023-2.525 1.394-1.615.484-2.248.97-2.248 1.724 0 .767-.519 1.148-1.918 1.41-1.055.199-1.918.58-1.918.849 0 .268-.246.487-.548.487-.694 0-2.739 2.024-2.739 2.712 0 .284-.492.862-1.093 1.283-.6.422-.927.932-.724 1.134.548.55-2.622 3.648-3.733 3.648-.528 0-1.113.247-1.299.549-.186.301-.789.548-1.339.548-1.712 0-2.771 2.377-2.771 6.222 0 2.458-.247 3.724-.821 4.2-.693.576-.954.367-1.661-1.328-.462-1.106-.693-2.25-.513-2.54.451-.731-.262-2.797-.841-2.439-.259.16-.626.04-.815-.266-.19-.307-1.316-.557-2.504-.557-1.794 0-2.159.185-2.159 1.097 0 1.2-1.843 1.557-2.504.485-.568-.919-5.535-.27-6.816.891-.6.543-1.09 1.452-1.09 2.02 0 .566-.351 1.577-.78 2.246-1.176 1.835-1.641 6.065-.835 7.597.912 1.733 1.555 2.102 3.683 2.112 1.546.007 1.839-.213 2.113-1.589.333-1.663 1.375-2.221 4.174-2.235 1.881-.01 1.874.56-.055 4.518l-1.538 3.154h2.621c2.554 0 2.63.049 2.975 1.89.236 1.258.06 2.48-.526 3.656-.778 1.56-.787 1.911-.081 2.989.618.946 1.331 1.224 3.154 1.233 1.294.006 2.847.094 3.449.196.796.134 1.145-.161 1.275-1.079.111-.781.739-1.467 1.644-1.794a28.932 28.932 0 0 0 2.741-1.184c1.797-.92 4.043-.624 5.114.673.669.81 1.685 1.139 3.826 1.239 1.898.088 3.254.47 3.884 1.095.532.528.968 1.043.968 1.143 0 .101.948 1.212 2.107 2.469 1.281 1.389 2.595 2.285 3.35 2.285 2.373 0 5.351 2.191 6.277 4.619.477 1.251.868 2.699.868 3.216 0 .576.425.942 1.095.942.603 0 1.096.363 1.096.806 0 .507.319.683.862.474.48-.184 1.607.221 2.547.917.926.686 2.796 1.373 4.155 1.526 2.843.321 7.759 3.646 8.812 5.96.8 1.759.446 2.905-2.089 6.75-1.715 2.6-2.024 3.549-2.137 6.55-.148 3.97-.296 4.352-1.918 4.952-.969.359-1.134.806-.997 2.705.16 2.22.123 2.274-1.564 2.274-2.667 0-4.929 2.556-4.938 5.58-.011 3.34-3.801 10.184-6.081 10.98-1.241.433-1.542.807-1.29 1.602.585 1.844-.242 3.172-2.204 3.54-1.281.241-1.758.584-1.554 1.117.162.423.116 1.201-.102 1.729s-.503 2.059-.632 3.403c-.13 1.343-.516 2.782-.859 3.196-.476.573-.437.871.162 1.251.433.274 1.003.502 1.267.507.265.004.36 1.271.212 2.815-.372 3.868.609 5.644 3.788 6.859 2.059.787 2.33 1.038 1.485 1.37-.569.224-2.232.424-3.695.445-2.15.031-2.601-.119-2.346-.784.217-.565-.034-.823-.799-.823-1.48 0-3.231-.971-3.25-1.802-.008-.367-.748-1.636-1.644-2.821-.895-1.185-1.628-2.467-1.628-2.849 0-.382-.551-1.081-1.225-1.553-1.042-.731-1.125-1.018-.557-1.929.768-1.231.369-2.76-.721-2.76-.414 0-1.006-1.03-1.339-2.331a49.507 49.507 0 0 0-1.431-4.5c-.485-1.261-.699-2.891-.511-3.893.178-.949-.07-3.429-.551-5.512-.48-2.082-1.068-6.804-1.306-10.492-.485-7.514-.885-8.493-4.57-11.186-1.27-.928-2.241-1.929-2.158-2.224.083-.295-.053-.411-.3-.258-.842.521-1.604-.463-3.553-4.586-1.069-2.262-2.701-4.854-3.626-5.759-1.788-1.75-2.246-4.286-1.145-6.345.38-.711.384-1.061.011-1.061-1.603 0 .762-5.726 3.225-7.812 1.835-1.553 1.363-8.096-.584-8.096-.565 0-1.028.37-1.028.823 0 .452-.339.823-.754.823-.416 0-1.062-.371-1.437-.823-.376-.453-1.022-.823-1.437-.823-.415 0-.755-.207-.755-.461 0-.253-.616-.741-1.37-1.085-.753-.344-1.37-1.045-1.37-1.558 0-.513-.289-1.733-.642-2.71-.498-1.38-1.047-1.855-2.448-2.118-.993-.187-2.127-.661-2.52-1.054-1.081-1.083-2.96-1.985-4.134-1.985-1.132 0-5.87-2.352-7.284-3.616-.476-.425-1.04-.773-1.256-.773-.215 0-.914-.489-1.555-1.086-1.065-.993-1.105-1.264-.472-3.183.587-1.784.557-2.42-.204-4.244-.493-1.18-1.071-2.277-1.285-2.439-.718-.54-1.914-4.109-2.167-6.465-.138-1.282-.504-2.33-.814-2.33-.82 0 .25 7.602 1.485 10.559.278.665.15.96-.416.96-.935 0-2.778-2.54-2.348-3.236.157-.254-.218-1.044-.834-1.756-.617-.71-.915-1.361-.663-1.445.251-.084.366-2.064.254-4.4-.15-3.153-.462-4.531-1.208-5.346-.916-.998-.951-1.49-.397-5.485.634-4.572 1.18-5.66 4.907-9.769 1.113-1.227 2.463-3.05 3-4.048.538-1 1.154-1.817 1.369-1.817.215 0 .037-.679-.396-1.509-1-1.92-1.008-2.928-.02-2.548.465.178.916-.157 1.133-.84.198-.626.59-1.137.871-1.137s.511-.65.511-1.445.289-2.408.641-3.586c.587-1.96.54-2.212-.548-2.975-.654-.458-1.189-1.164-1.189-1.568 0-.906-4.28-3.104-4.706-2.415-.17.274-.597.443-.951.376s-1.23.076-1.945.319c-.893.302-1.455.207-1.79-.304-.403-.61-.617-.58-1.192.17-.386.503-1.676 1.092-2.867 1.31-1.19.216-3.15.832-4.356 1.367-2.552 1.133-9.04 1.949-9.04 1.137 0-.295 1.417-.817 3.15-1.16 4.85-.959 8.898-2.399 7.397-2.631-.88-.137-1.233-.565-1.233-1.499 0-3.444 2.227-5.16 6.794-5.236 2.122-.035 2.171-.071.877-.656-.753-.34-1.471-.693-1.595-.782-.123-.09.246-.698.822-1.35.911-1.033.692-.986-1.693.365-5.352 3.033-15.42 9.922-20.82 14.246C39.105 42.701 20.983 62.532 14.38 73.477.938 95.757-1.908 123.715 6.87 147.249c4.662 12.503 9.306 19.714 22.282 34.601C46.715 202 72.94 220.574 97.868 230.517c4.901 1.954 5.149 1.994 12.557 1.994 7.539 0 10.008-.737 3.081-.92-3.111-.082-4.637-.217-7.382-.655-.244-.039-.293-.315-.109-.613.184-.299-.008-.411-.428-.25-.419.162-1.053-.058-1.409-.487-.889-1.073.864-1.507 3.593-.891 2.373.536 2.793.339 1.809-.847-.387-.467-.57-.983-.408-1.146.163-.163 2.479-.756 5.147-1.319 2.667-.563 4.449-1.041 3.958-1.062-.94-.041-2.461-1.527-2.018-1.971.143-.144 2.362-.413 4.931-.6 4.004-.29 4.895-.192 6.235.685.86.564 1.374.716 1.142.339-.596-.968 1.288-.857 2.624.154 1.189.901 3.364 1.073 3.839.303.171-.276-.853-1.498-2.276-2.715-2.213-1.895-2.442-2.268-1.586-2.597.606-.233 1.676.024 2.719.653 1.466.884 2.921 1.045 9.882 1.098 7.239.055 8.277-.052 9.169-.945.976-.978.955-1.066-.702-2.955-1.725-1.966-1.798-2.877-.181-2.256.517.199.717.622.483 1.028-.218.379-.194.506.052.282.247-.223.777-.134 1.178.199 1.148.955 1.55-.879.516-2.357-.979-1.4-1.147-2.334-.329-1.827.316.195.4-.036.201-.553-.495-1.293.846-3.45 2.731-4.391.9-.449 1.739-.714 1.865-.587.343.343-.921 2.518-1.464 2.518-.875 0-1.054 1.506-.399 3.363.72 2.043 3.131 4.865 4.157 4.865.362 0 2.429.821 4.594 1.825 2.823 1.309 4.512 2.53 5.971 4.318 1.118 1.371 1.858 2.688 1.643 2.926-.214.238-.071.248.319.023s1.007-.162 1.371.14c.364.302 2.752.632 5.308.733l4.647.183 1.854-2.057c1.327-1.472 2.304-2.057 3.434-2.057 1.02 0 1.58-.284 1.58-.801 0-1.449 2.959-3.621 6.164-4.525 1.733-.488 3.151-1.094 3.151-1.347 0-.252.725-.458 1.611-.458.887 0 1.777-.269 1.98-.597.202-.328.833-.474 1.402-.325.569.149 1.036.109 1.038-.09.002-.198.599-.635 1.325-.973 1.042-.483 1.491-.443 2.125.192.447.448 1.684.773 2.784.732 3.007-.111 3.161-.103 5.953.289 2.024.285 2.603.198 2.603-.391 0-1.052 17.381-1.122 17.783-.071.347.904 2.317.88 2.873-.036.509-.837 5.61-2.49 8.333-2.7 1.041-.081 2.423-.69 3.125-1.379.692-.678 1.751-1.234 2.353-1.234 1.375 0 3.886 1.121 3.886 1.734 0 .253.925.462 2.055.463 3.507.006 6.164.99 6.164 2.285 0 .979.122 1.037.874.412.481-.4 2.022-.77 3.425-.824 1.402-.054 3.906-.379 5.564-.724 1.657-.344 4.986-.598 7.396-.565 3.999.055 7.532-.002 10.411-.17 2.577-.15 5.248.167 4.986.591-.322.521 1.951.43 4.174-.169 1.085-.291 2.009-.08 3.395.778 1.524.943 2.648 1.157 5.633 1.07 5.439-.157 14.413 1.595 14.413 2.814 0 .255.869.777 1.932 1.162 1.135.411 1.824.98 1.671 1.379-.154.402.046.562.49.391 1.052-.404 3.693 1.445 3.348 2.345-.156.408.051.742.46.742 1.213 0 3.096 1.849 2.627 2.579-.47.73-5.974 1.874-8.735 1.815-1.973-.042-6.177 2.431-6.177 3.633 0 .489-.655.75-1.882.75-2.516 0-4.693.88-4.693 1.897 0 .706 1.149.806 7.808.68l7.808-.149 7.397-3.177Zm36.583-38.845c-.522-.399-.768-.984-.548-1.3.428-.613 5.888-2.984 6.912-3.001.336-.005 1.708-.753 3.048-1.662 1.34-.91 2.789-1.518 3.22-1.352 1.028.394 2.288-.685 2.288-1.961 0-.555.45-1.251 1-1.546.549-.294 1.282-1.48 1.628-2.635.345-1.155 1.016-2.589 1.49-3.187.801-1.008.837-.841.51 2.346-.309 3.005-.244 3.39.523 3.095.482-.185.876-.081.876.232 0 .693-1.538 2.292-2.205 2.292-.267 0-1.091.607-1.832 1.349-.741.742-2.047 1.522-2.901 1.732-.855.211-2.54 1.188-3.746 2.171-1.205.982-2.438 1.842-2.739 1.91-.302.068-1.077.47-1.723.894-1.751 1.149-4.699 1.465-5.801.623Zm-16.972-6.896c-.205-1.019 1.035-3.982 1.66-3.97 2.964.06 3.675 1.996 1.393 3.793-1.764 1.389-2.796 1.449-3.053.177Zm.18-6.873c-.338-.338-.614-1.163-.614-1.832 0-1.616-.541-2.952-1.194-2.952-.97 0-1.99-1.448-2.159-3.064-.092-.879-.392-1.907-.666-2.285-.607-.834-3.995-.913-4.494-.105-.198.321-1.027.434-1.849.253-1.041-.229-1.918.009-2.911.791-.912.718-2.235 1.119-3.698 1.119-1.253 0-2.77.263-3.37.585-1.459.781-4.316.122-4.316-.997 0-.481.432-1.351.959-1.934.745-.824.961-2.052.969-5.487.007-3.01.226-4.497.685-4.651.371-.123.675-.742.675-1.374 0-2.677 1.236-4.645 3.51-5.589 5.787-2.402 7.992-3.776 11.457-7.144 2.816-2.737 3.996-3.548 4.795-3.294.582.185 1.059.567 1.059.848 0 1.018 1.133.481 1.724-.818.333-.731 1.19-1.476 1.906-1.656.715-.18 1.301-.692 1.301-1.139 0-1.02.102-1.016 3.351.139 2.672.95 3.582 2.423 1.898 3.07-.429.165-.694.746-.59 1.293.103.547.207 1.135.23 1.307.023.171.774 1.133 1.669 2.137l1.627 1.824.531-1.398c.292-.769.793-1.56 1.112-1.758.32-.198.582-.885.582-1.526 0-1.318 2.082-5.9 2.68-5.9.661 0 1.725 5.57 1.746 9.131.015 2.584.259 3.589 1.047 4.303.566.512.889 1.295.718 1.739-.17.445-.048 1.347.272 2.006.32.658.858 2.443 1.197 3.965 1.194 5.376-.382 8.488-8.079 15.953-3.293 3.192-4.452 3.976-6.327 4.274-4.52.719-6.829.771-7.433.166Zm-101.979-24.534c-.805-1.505-.634-5.597.284-6.811.52-.689.69-1.733.49-3.017-.293-1.877-.202-2.014 2.047-3.081 1.928-.914 2.44-1.485 2.834-3.154.494-2.09 1.295-2.54 2.455-1.379.677.678.918 4.383.323 4.979-.448.448-3.488 9.055-3.87 10.956-.167.83-.339 1.509-.382 1.509-.043 0-.878.23-1.856.51-1.492.429-1.867.346-2.325-.512Zm126.569-17.383c-.452-.161-1.611-1.129-2.575-2.151-1.88-1.993-2.905-2.358-2.905-1.035 0 .541-.54.823-1.576.823-.867 0-1.884-.371-2.259-.823-.375-.453-1.019-.823-1.43-.823-.443 0-.884-.849-1.08-2.077-.284-1.778-.675-2.245-2.717-3.244-1.446-.708-2.459-.941-2.575-.592-.329.988-2.161-1.322-1.886-2.377.143-.547-.084-1.281-.505-1.631-1.055-.877-.958-1.463.31-1.866 1.461-.465 3.308.614 3.308 1.932 0 1.291.463 1.351 2.017.261 1.008-.707 1.454-.715 3.306-.061 4.941 1.745 7.264 3.096 7.594 4.413.183.727.797 1.743 1.365 2.258.569.515.899 1.155.734 1.422-.362.586 1.851 4.305 2.562 4.305.277 0 .503.37.503.823 0 .834-.699.975-2.191.443Zm-29.918-1.357c-.53-.86 1.77-2.652 3.404-2.652 1.881 0 1.613.645-.855 2.055-1.538.88-2.269 1.051-2.549.597Zm-8.436-2.923c0-.534.419-.755 1.204-.635 1.742.266 1.915 1.455.211 1.455-.89 0-1.415-.304-1.415-.82Zm3.835.271c0-.302.863-.549 1.918-.549 1.054 0 1.917.247 1.917.549 0 .302-.863.549-1.917.549-1.055 0-1.918-.247-1.918-.549Zm-8.849-.814c-.146-.146-1.849-.412-3.785-.591-4.138-.383-5.381-1.091-4.125-2.348.675-.676 1.284-.725 3.287-.266 1.465.335 2.659.363 2.954.067.295-.295 1.298-.096 2.48.494 2.294 1.144 2.739 2.909.733 2.909-.704 0-1.398-.119-1.544-.265Zm44.281-1.197c-.743-.744-.333-1.829.691-1.829.58 0 1.54-.617 2.133-1.371 1.34-1.705 1.742-1.727 1.742-.096 0 2.144-3.322 4.542-4.566 3.296Zm-55.863-4.188c-1.142-1.267-2.227-2.921-2.412-3.675-.185-.754-.792-1.96-1.349-2.68-.556-.719-1.012-1.521-1.012-1.781s-.863-1.676-1.918-3.146c-2.241-3.123-2.296-3.364-.768-3.364 1.223 0 8.713 6.836 8.713 7.953 0 .352.733 1.361 1.629 2.241 1.913 1.88 2.259 4.863.7 6.048-1.296.984-1.231 1.013-3.583-1.596Zm20.102.028c-.569-2.443-.323-4.012.976-6.217 1.074-1.822 1.917-2.174 4.654-1.945.655.054 1.348-.154 1.539-.464.191-.309.594-.563.894-.563.301 0 .11.741-.424 1.646-.534.905-1.179 1.646-1.433 1.646-.255 0-.322.227-.151.504.171.278-.256.957-.949 1.509-1.119.891-1.184 1.158-.575 2.369.404.802.485 1.568.197 1.856-.773.773-2.099-.014-2.364-1.405-.158-.825-.268-.55-.317.789-.094 2.605-1.46 2.788-2.047.275Zm-5.927-.888c-.162-.262-1.225-.633-2.361-.824-1.724-.29-2.227-.697-3.026-2.446-.527-1.154-.959-2.886-.959-3.849 0-1.576.132-1.718 1.318-1.42 1.02.256 1.4.072 1.681-.812.199-.629.654-1.149 1.01-1.156.59-.012 3.088-2.613 4.891-5.094.689-.949.78-.941 2.074.182 1.505 1.305 1.887 3.213.734 3.657-.965.37-.942 1.159.089 3.138.783 1.505.751 1.713-.551 3.596-.761 1.099-1.384 2.293-1.384 2.654 0 .778-1.968 2.85-2.707 2.85-.283 0-.648-.214-.809-.476Zm11.693-14.926c-.626-.626-1.489-1.004-1.918-.84-.505.194-.779-.066-.779-.738 0-.695.62-1.242 1.882-1.659 1.035-.342 1.975-.899 2.087-1.238.113-.339.622-.457 1.132-.261 1.016.39 1.359 4.23.378 4.23-.302 0-.548.37-.548.823 0 1.151-.895 1.025-2.234-.317Zm-53.37-.094c-.706-2.098-.438-4.8.476-4.8.948 0 2.528 2.35 2.528 3.762 0 1.529-2.543 2.408-3.004 1.038Zm45.193-3.176c0-1.026 1.725-4.367 2.255-4.367.648 0 .617.267-.281 2.419-.792 1.898-1.974 3.064-1.974 1.948Zm7.985-5.327c-.45-.83-.828-1.293-.84-1.03-.012.263-.381.18-.82-.184-.438-.365-1.043-.511-1.343-.326-.3.186-1.313-.349-2.251-1.188-1.634-1.462-1.686-1.64-1.247-4.262.304-1.817.751-2.793 1.331-2.905.987-.19 1.704 2.265 1.212 4.15-.225.86.098 1.34 1.333 1.98.897.465 1.776 1.224 1.954 1.688.177.463.674.843 1.103.843.733 0 1.446 1.104 1.446 2.239 0 1.034-1.089.452-1.878-1.005Zm-234.911-8.205c-1.664-.256-2.615-1.796-1.125-1.823.873-.015.871-.058-.028-.582-.534-.31-1.456-.41-2.05-.222-.805.256-1.241-.008-1.708-1.034-.749-1.646-4.706-3.456-5.6-2.562-.81.812-2.548.719-2.548-.136 0-.786 2.96-2.03 4.833-2.03.657 0 1.194.218 1.194.485 0 .266.431.63.959.807 1.051.355 4.106 2.087 5.199 2.948.38.3 1.637.69 2.794.869 3.052.47 5.166 2.57 2.586 2.57-.585 0-1.216.248-1.402.55-.342.554-.484.562-3.104.16Zm226.297-7.526c-.713-1.566-.171-4.329.787-4.013.842.277 1.229 5.344.409 5.344-.325 0-.863-.599-1.196-1.33ZM217.337 64.835c-.666-.666-.379-2.377.398-2.377.866 0 1.383 1.036 1.028 2.057-.263.753-.86.887-1.426.32Zm-14.594-14.846c.01-.232.379-.901.822-1.487.442-.586.804-1.512.804-2.057 0-.546.247-.992.548-.992.81 0 .665-1.059-.274-1.999-1.327-1.328-.955-5.681.485-5.681.884 0 2.632 2.13 2.253 2.746-.362.586.59 2.329 2.33 4.268.679.756 1.233 1.69 1.233 2.078 0 1.207-1.594 2.37-3.716 2.712-1.12.18-2.592.441-3.27.58-.678.14-1.225.064-1.215-.168Zm-3.735-3.35c.054-1.917 1.992-3.93 3.783-3.93 1.034 0 1.113.213.775 2.058-.461 2.51-.691 2.768-2.877 3.205-1.646.33-1.727.265-1.681-1.334Zm-8.063-15.007c-2.381-1.352-2.297-3 .225-4.41 1.526-.853 2.086-.9 4.06-.341 1.26.357 2.623.95 3.029 1.318 1.157 1.048-.137 2.848-2.526 3.512-2.57.715-3.413.701-4.788-.08Zm62.189-9.76c-.659-.419-.694-.73-.175-1.569.356-.575.812-1.924 1.013-2.997.421-2.246 2.163-3.308 6.421-3.915 3.695-.526 3.584.928-.165 2.175-1.523.506-3.062 1.39-3.42 1.964-.358.574-1.009 1.043-1.446 1.043-.456 0-.048.62.953 1.451.963.798 1.75 1.662 1.75 1.92 0 .637-3.908.58-4.931-.071Zm-125.856-8.97c.192-.502.11-.911-.182-.911-1.195 0-.413-1.031 1.214-1.6 1.346-.469 1.843-.45 2.175.084.328.528.67.544 1.433.071.766-.474 1.24-.448 2.003.11 1.663 1.218.67 2.43-1.996 2.44-1.29.003-2.942.166-3.671.361-1.082.29-1.261.188-.976-.556Zm9.808.076c-.362-.362-.658-1.22-.658-1.906 0-1.064.182-1.181 1.233-.792.678.25 1.541.347 1.917.215 1.182-.416 1.511 1.581.396 2.398-1.253.917-2.035.94-2.888.085Zm121.247 84.999c-1.049-3.4-2.202-5.444-4.086-7.252-1.069-1.025-1.56-1.94-1.367-2.55.169-.532-.052-1.15-.5-1.403-.441-.249-1.437-1.721-2.215-3.273-1.225-2.445-2.776-3.953-3.41-3.318-.108.107.42 1.41 1.172 2.893.751 1.484 1.368 2.976 1.369 3.316.001.34.356.913.789 1.272.433.36.933 1.32 1.111 2.133.677 3.088 2.837 6.592 5.225 8.48 1.356 1.072 2.503 1.968 2.549 1.991.046.023-.241-1.007-.637-2.29Zm8.847-30.853c.172-.45-.188-1.784-.802-2.963-.614-1.178-1.013-2.246-.888-2.372.126-.126-.63-1.063-1.68-2.082-1.956-1.898-2.361-2.735-1.323-2.735.744 0 2.153-1.39 2.153-2.123 0-.931-1.04-1.268-2.753-.89-1.555.341-1.631.49-1.631 3.228 0 2.476.227 3.09 1.648 4.451 1.105 1.06 1.466 1.762 1.096 2.133-1.103 1.103-.564 2.574 1.229 3.355 2.279.991 2.57.99 2.951-.002Zm-23.433-5.57c1.109-.729 1.791-.762 4.53-.222 5.032.99 5.883-.365 1.791-2.852-1.917-1.165-2.717-1.384-3.508-.96-1.352.724-2.8.743-1.661.022.443-.28.647-.67.452-.865-.456-.456-4.272.914-4.272 1.535 0 .259-.231.327-.514.152-.866-.536-1.617 1.43-1.035 2.71.645 1.417 2.471 1.624 4.217.48Zm-112.353-18.16c.317-.83.726-2.039.908-2.688.182-.653.949-1.335 1.716-1.528.924-.232 1.669-1.028 2.232-2.386.465-1.12 1.57-3.116 2.455-4.434.886-1.319 1.488-2.52 1.338-2.67-.149-.149-1.517-.271-3.039-.271-1.699 0-2.767-.24-2.767-.623 0-.676-2.275-.715-4.247-.073-.678.221-1.233.593-1.233.827 0 .234-.554.574-1.232.757-2.176.586-3.857 2.288-3.916 3.964-.047 1.317.396 1.88 2.645 3.353 1.485.973 2.918 1.842 3.184 1.931.266.089.222.851-.099 1.694-.891 2.347-.731 3.656.448 3.656.617 0 1.26-.604 1.607-1.509Zm-2.192-18.937c.144-.743-.384-.865-3.393-.781-3.596.1-3.726.607-.31 1.21 1.02.18 1.971.442 2.112.584.475.475 1.419-.125 1.591-1.012Zm6.812.333c-.379-.152-.565-.477-.414-.722.151-.244-.107-.59-.573-.77-.52-.2-.708-.098-.485.262.214.347-.055.543-.657.48-1.984-.21-2.639.154-1.018.566 1.854.473 4.201.61 3.147.184Zm-9.395-6.277c1.225-.943 1.24-1.015.221-1.035-.603-.012-1.654-.61-2.335-1.33-.796-.84-1.628-1.208-2.323-1.026-.596.156-.948.502-.783.77.165.267-.023.49-.417.494-.563.007-.555.112.038.488.884.56.356 1.698-.788 1.698-.434 0-.789.227-.789.504 0 .962 5.783.509 7.176-.563Zm-49.81-1.961c-.396-.159-.869-.14-1.05.043-.183.182.14.312.718.288.639-.026.769-.156.331-.331Z" class="path2987"/>
    <path  stroke="#7A9049" stroke-width="3" d="M334 4 104 2.5c-7 2.333-24.6 9.6-39 20-18 13-44.5 36-53.5 55.5s-12.5 34-8 59 25 46 46 65c16.8 15.2 43 27 54 31l230.5.5c7.167-1.5 33.5-15 53.5-31 32-26.5 40.5-48.5 43-54.5s8.5-32 2-51.5-13.5-29-18.5-35l-.268-.322C408.595 55.011 397.125 41.239 376 26.5c-17.2-12-35.167-20-42-22.5Z" class="Vector 330"/>
    <g class="Pin" data-world-map-marker="Türkiye">
      <path fill="#7A9049" stroke="#fff" stroke-width="1.5" d="M242.75 49.637c0-1.97.736-3.418 1.85-4.383 1.128-.978 2.696-1.504 4.411-1.504 1.703 0 3.266.526 4.391 1.503 1.112.965 1.848 2.414 1.848 4.384 0 .346-.099.825-.247 1.323a10.25 10.25 0 0 1-.424 1.159L249 63.318l-5.579-11.2a10.25 10.25 0 0 1-.424-1.158c-.148-.498-.247-.977-.247-1.323Z" class="Pin"/>
    </g>
    <g class="Pin" data-world-map-marker="Dubai">
      <path fill="#7A9049" stroke="#fff" stroke-width="1.5" d="M264.75 70.637c0-1.97.736-3.418 1.85-4.383 1.128-.978 2.696-1.504 4.411-1.504 1.703 0 3.266.526 4.391 1.503 1.112.965 1.848 2.414 1.848 4.384 0 .346-.099.825-.247 1.323a10.25 10.25 0 0 1-.424 1.159L271 84.318l-5.579-11.2a10.25 10.25 0 0 1-.424-1.158c-.148-.498-.247-.977-.247-1.323Z" class="Pin"/>
    </g>
    <g class="Pin"  data-world-map-marker="Tayland">
      <path fill="#7A9049" stroke="#fff" stroke-width="1.5" d="M319.75 78.637c0-1.97.736-3.418 1.85-4.383 1.128-.978 2.696-1.504 4.411-1.504 1.703 0 3.266.526 4.391 1.503 1.112.965 1.848 2.414 1.848 4.384 0 .346-.099.825-.247 1.323a10.25 10.25 0 0 1-.424 1.159L326 92.318l-5.579-11.2a10.25 10.25 0 0 1-.424-1.158c-.148-.498-.247-.977-.247-1.323Z" class="Pin"/>
    </g>
    <g class="Pin" data-world-map-marker="Kazakistan">
      <path fill="#7A9049" stroke="#fff" stroke-width="1.5" d="M280.75 39.637c0-1.97.736-3.418 1.85-4.383 1.128-.978 2.696-1.504 4.411-1.504 1.703 0 3.266.526 4.391 1.503 1.112.965 1.848 2.414 1.848 4.384 0 .346-.099.825-.247 1.323a10.25 10.25 0 0 1-.424 1.159L287 53.318l-5.579-11.2a10.25 10.25 0 0 1-.424-1.158c-.148-.498-.247-.977-.247-1.323Z" class="Pin"/>
    </g>
    <g class="Pin" data-world-map-marker="Almanya" >
      <path fill="#7A9049" stroke="#fff" stroke-width="1.5" d="M214.75 35.637c0-1.97.736-3.418 1.85-4.383 1.128-.978 2.696-1.504 4.411-1.504 1.703 0 3.266.526 4.391 1.503 1.112.965 1.848 2.414 1.848 4.384 0 .346-.099.825-.247 1.323a10.25 10.25 0 0 1-.424 1.159L221 49.318l-5.579-11.2a10.25 10.25 0 0 1-.424-1.158c-.148-.498-.247-.977-.247-1.323Z" class="Pin"/>
    </g>
    <g class="Pin" data-world-map-marker="Moskova" >
      <path fill="#7A9049" stroke="#fff" stroke-width="1.5" d="M246.75 23.637c0-1.97.736-3.418 1.85-4.383 1.128-.978 2.696-1.504 4.411-1.504 1.703 0 3.266.526 4.391 1.503 1.112.965 1.848 2.414 1.848 4.384 0 .346-.099.825-.247 1.323a10.25 10.25 0 0 1-.424 1.159L253 37.318l-5.579-11.2a10.25 10.25 0 0 1-.424-1.158c-.148-.498-.247-.977-.247-1.323Z" class="Pin"/>
    </g>
  </g>
</svg>